0
SECTION
2
ENTITIES
0
LINE
8
0
10
-61.690083
20
-32.771473
30
-1488.2338
11
-61.673096
21
-32.11029
31
-1487.9468
0
LINE
8
0
10
-61.199352
20
-31.301785
30
-1487.494
11
-61.673096
21
-32.11029
31
-1487.9468
0
LINE
8
0
10
-61.73398
20
-31.701996
30
-1488.1211
11
-61.673096
21
-32.11029
31
-1487.9468
0
LINE
8
0
10
-62.068954
20
-32.6659
30
-1487.9384
11
-61.673096
21
-32.11029
31
-1487.9468
0
LINE
8
0
10
-814.4778
20
743.98047
30
-2203.2412
11
-814.6224
21
743.85205
31
-2203.4448
0
LINE
8
0
10
-814.5797
20
743.35815
30
-2203.867
11
-814.6224
21
743.85205
31
-2203.4448
0
LINE
8
0
10
-814.87787
20
744.08496
30
-2203.3584
11
-814.6224
21
743.85205
31
-2203.4448
0
LINE
8
0
10
-814.5543
20
743.9847
30
-2203.313
11
-814.6224
21
743.85205
31
-2203.4448
0
LINE
8
0
10
-814.79083
20
743.6012
30
-2203.0962
11
-814.7579
21
743.8896
31
-2203.1963
0
LINE
8
0
10
-815.0215
20
743.78546
30
-2203.336
11
-814.7579
21
743.8896
31
-2203.1963
0
LINE
8
0
10
-814.9251
20
744.23956
30
-2202.954
11
-814.7579
21
743.8896
31
-2203.1963
0
LINE
8
0
10
-814.29425
20
743.93207
30
-2203.3987
11
-814.7579
21
743.8896
31
-2203.1963
0
LINE
8
0
10
-851.4353
20
199.29898
30
-1837.1295
11
-851.8736
21
199.34398
31
-1836.7444
0
LINE
8
0
10
-852.40826
20
199.47523
30
-1836.8042
11
-851.8736
21
199.34398
31
-1836.7444
0
LINE
8
0
10
-851.8215
20
199.51974
30
-1836.1373
11
-851.8736
21
199.34398
31
-1836.7444
0
LINE
8
0
10
-851.8295
20
199.082
30
-1836.9064
11
-851.8736
21
199.34398
31
-1836.7444
0
LINE
8
0
10
-611.7231
20
516.898
30
-2001.4185
11
-514.41095
21
524.9642
31
-1996.1226
0
LINE
8
0
10
-558.5768
20
774.5553
30
-2176.1162
11
-514.41095
21
524.9642
31
-1996.1226
0
LINE
8
0
10
-353.95056
20
397.1762
30
-1869.2402
11
-514.41095
21
524.9642
31
-1996.1226
0
LINE
8
0
10
-533.39343
20
411.22736
30
-1937.7158
11
-514.41095
21
524.9642
31
-1996.1226
0
LINE
8
0
10
-87.641785
20
389.0935
30
-1797.0004
11
-87.69359
21
389.3517
31
-1796.8511
0
LINE
8
0
10
-87.80093
20
388.9689
30
-1796.8278
11
-87.69359
21
389.3517
31
-1796.8511
0
LINE
8
0
10
-87.874664
20
389.67697
30
-1796.8557
11
-87.69359
21
389.3517
31
-1796.8511
0
LINE
8
0
10
-87.45699
20
389.6675
30
-1796.7206
11
-87.69359
21
389.3517
31
-1796.8511
0
LINE
8
0
10
-611.785
20
516.897
30
-2001.4316
11
-418.72723
21
426.85425
31
-1902.3113
0
LINE
8
0
10
-354.2271
20
396.80536
30
-1869.4299
11
-418.72723
21
426.85425
31
-1902.3113
0
LINE
8
0
10
-353.73785
20
397.09473
30
-1869.8186
11
-418.72723
21
426.85425
31
-1902.3113
0
LINE
8
0
10
-355.15897
20
396.6201
30
-1868.5651
11
-418.72723
21
426.85425
31
-1902.3113
0
LINE
8
0
10
-354.58182
20
396.67053
30
-1869.118
11
-342.51694
21
295.0519
31
-1786.302
0
LINE
8
0
10
-354.50296
20
396.65485
30
-1869.2732
11
-342.51694
21
295.0519
31
-1786.302
0
LINE
8
0
10
-331.29117
20
193.12183
30
-1703.7473
11
-342.51694
21
295.0519
31
-1786.302
0
LINE
8
0
10
-329.69174
20
193.76039
30
-1703.0696
11
-342.51694
21
295.0519
31
-1786.302
0
LINE
8
0
10
-851.7477
20
198.95425
30
-1837.3127
11
-743.03546
21
119.74202
31
-1747.4232
0
LINE
8
0
10
-678.8034
20
161.22304
30
-1771.9755
11
-743.03546
21
119.74202
31
-1747.4232
0
LINE
8
0
10
-679.41376
20
161.05713
30
-1772.1085
11
-743.03546
21
119.74202
31
-1747.4232
0
LINE
8
0
10
-762.177
20
-42.266396
30
-1608.2959
11
-743.03546
21
119.74202
31
-1747.4232
0
LINE
8
0
10
-814.304
20
743.1367
30
-2203.0706
11
-814.6612
21
743.6168
31
-2203.3137
0
LINE
8
0
10
-814.63403
20
743.4364
30
-2203.3347
11
-814.6612
21
743.6168
31
-2203.3137
0
LINE
8
0
10
-814.31366
20
743.76825
30
-2203.7617
11
-814.6612
21
743.6168
31
-2203.3137
0
LINE
8
0
10
-815.3934
20
744.126
30
-2203.0876
11
-814.6612
21
743.6168
31
-2203.3137
0
LINE
8
0
10
-878.93915
20
18.296196
30
-1691.7014
11
-879.0466
21
18.57886
31
-1690.8109
0
LINE
8
0
10
-879.0665
20
18.737299
30
-1691.2426
11
-879.0466
21
18.57886
31
-1690.8109
0
LINE
8
0
10
-879.39655
20
18.107649
30
-1690.4788
11
-879.0466
21
18.57886
31
-1690.8109
0
LINE
8
0
10
-878.7838
20
19.174278
30
-1689.821
11
-879.0466
21
18.57886
31
-1690.8109
0
LINE
8
0
10
-331.8604
20
192.59479
30
-1703.0648
11
-331.33224
21
193.30096
31
-1703.3346
0
LINE
8
0
10
-330.85156
20
193.68195
30
-1702.9731
11
-331.33224
21
193.30096
31
-1703.3346
0
LINE
8
0
10
-331.7659
20
193.56812
30
-1703.5408
11
-331.33224
21
193.30096
31
-1703.3346
0
LINE
8
0
10
-330.85114
20
193.35895
30
-1703.7596
11
-331.33224
21
193.30096
31
-1703.3346
0
LINE
8
0
10
-851.65106
20
199.1257
30
-1836.9943
11
-851.7948
21
199.32982
31
-1836.8069
0
LINE
8
0
10
-852.0186
20
199.71745
30
-1836.7413
11
-851.7948
21
199.32982
31
-1836.8069
0
LINE
8
0
10
-851.4583
20
199.18082
30
-1836.8911
11
-851.7948
21
199.32982
31
-1836.8069
0
LINE
8
0
10
-852.05133
20
199.29524
30
-1836.6011
11
-851.7948
21
199.32982
31
-1836.8069
0
LINE
8
0
10
-89.63761
20
390.1079
30
-1798.9637
11
-88.32901
21
389.41852
31
-1797.1766
0
LINE
8
0
10
-87.87106
20
389.13412
30
-1796.5579
11
-88.32901
21
389.41852
31
-1797.1766
0
LINE
8
0
10
-87.98487
20
389.21292
30
-1796.7056
11
-88.32901
21
389.41852
31
-1797.1766
0
LINE
8
0
10
-87.82252
20
389.2191
30
-1796.4792
11
-88.32901
21
389.41852
31
-1797.1766
0
LINE
8
0
10
-879.0887
20
18.059587
30
-1691.287
11
-883.33154
21
-54.210247
31
-1656.8254
0
LINE
8
0
10
-879.31067
20
18.42538
30
-1690.1024
11
-883.33154
21
-54.210247
31
-1656.8254
0
LINE
8
0
10
-878.3639
20
19.427166
30
-1689.9198
11
-883.33154
21
-54.210247
31
-1656.8254
0
LINE
8
0
10
-896.56274
20
-272.7531
30
-1555.9923
11
-883.33154
21
-54.210247
31
-1656.8254
0
LINE
8
0
10
-655.3398
20
-42.40479
30
-1686.0054
11
-387.02612
21
-148.98164
31
-1521.6761
0
LINE
8
0
10
-162.99176
20
-324.13208
30
-1378.4076
11
-387.02612
21
-148.98164
31
-1521.6761
0
LINE
8
0
10
-210.22723
20
41.69805
30
-1569.0801
11
-387.02612
21
-148.98164
31
-1521.6761
0
LINE
8
0
10
-519.54565
20
-271.08777
30
-1453.2115
11
-387.02612
21
-148.98164
31
-1521.6761
0
LINE
8
0
10
-678.8958
20
161.20012
30
-1771.9927
11
-698.4875
21
125.705414
31
-1743.6439
0
LINE
8
0
10
-680.1421
20
160.51205
30
-1773.0294
11
-698.4875
21
125.705414
31
-1743.6439
0
LINE
8
0
10
-679.3307
20
161.24767
30
-1772.5319
11
-698.4875
21
125.705414
31
-1743.6439
0
LINE
8
0
10
-755.5812
20
19.861835
30
-1657.0216
11
-698.4875
21
125.705414
31
-1743.6439
0
LINE
8
0
10
-333.0299
20
194.51721
30
-1704.9031
11
-331.1174
21
193.59744
31
-1703.6327
0
LINE
8
0
10
-329.46722
20
193.54333
30
-1703.4601
11
-331.1174
21
193.59744
31
-1703.6327
0
LINE
8
0
10
-331.3612
20
192.57385
30
-1703.0468
11
-331.1174
21
193.59744
31
-1703.6327
0
LINE
8
0
10
-330.6114
20
193.75545
30
-1703.1207
11
-331.1174
21
193.59744
31
-1703.6327
0
LINE
8
0
10
-16.148277
20
814.66364
30
-2362.9475
11
17.950592
21
649.6781
31
-1982.2778
0
LINE
8
0
10
208.31613
20
752.58905
30
-1904.6936
11
17.950592
21
649.6781
31
-1982.2778
0
LINE
8
0
10
120.578964
20
493.11026
30
-1765.8619
11
17.950592
21
649.6781
31
-1982.2778
0
LINE
8
0
10
-240.94446
20
538.3495
30
-1895.608
11
17.950592
21
649.6781
31
-1982.2778
0
LINE
8
0
10
-1142.1161
20
43.60854
30
-1776.7234
11
-936.8866
21
-130.67819
31
-1598.3718
0
LINE
8
0
10
-879.0144
20
18.393122
30
-1690.6827
11
-936.8866
21
-130.67819
31
-1598.3718
0
LINE
8
0
10
-757.025
20
-261.51135
30
-1462.8391
11
-936.8866
21
-130.67819
31
-1598.3718
0
LINE
8
0
10
-969.3908
20
-323.2031
30
-1463.2418
11
-936.8866
21
-130.67819
31
-1598.3718
0
LINE
8
0
10
-88.08212
20
389.28976
30
-1796.0579
11
-87.89432
21
389.26843
31
-1796.4254
0
LINE
8
0
10
-88.001564
20
389.5894
30
-1796.3977
11
-87.89432
21
389.26843
31
-1796.4254
0
LINE
8
0
10
-87.921196
20
388.99686
30
-1796.6526
11
-87.89432
21
389.26843
31
-1796.4254
0
LINE
8
0
10
-87.57238
20
389.1979
30
-1796.5936
11
-87.89432
21
389.26843
31
-1796.4254
0
LINE
8
0
10
-923.9066
20
495.87143
30
-2047.1764
11
-766.7413
21
343.23285
31
-1914.7251
0
LINE
8
0
10
-611.649
20
517.306
30
-2001.6848
11
-766.7413
21
343.23285
31
-1914.7251
0
LINE
8
0
10
-679.37933
20
160.91724
30
-1772.9039
11
-766.7413
21
343.23285
31
-1914.7251
0
LINE
8
0
10
-852.02997
20
198.83667
30
-1837.1354
11
-766.7413
21
343.23285
31
-1914.7251
0
LINE
8
0
10
-879.1137
20
18.83792
30
-1689.8999
11
-878.781
21
18.736874
31
-1690.2627
0
LINE
8
0
10
-879.17816
20
18.004309
30
-1690.7982
11
-878.781
21
18.736874
31
-1690.2627
0
LINE
8
0
10
-878.9042
20
18.553204
30
-1690.2222
11
-878.781
21
18.736874
31
-1690.2627
0
LINE
8
0
10
-877.9282
20
19.55206
30
-1690.1309
11
-878.781
21
18.736874
31
-1690.2627
0
LINE
8
0
10
-240.48422
20
538.6256
30
-1895.697
11
-165.08556
21
462.92328
31
-1846.1042
0
LINE
8
0
10
-244.11469
20
536.0279
30
-1894.7566
11
-165.08556
21
462.92328
31
-1846.1042
0
LINE
8
0
10
-87.64404
20
387.8735
30
-1797.4851
11
-165.08556
21
462.92328
31
-1846.1042
0
LINE
8
0
10
-88.09918
20
389.1659
30
-1796.4781
11
-165.08556
21
462.92328
31
-1846.1042
0
LINE
8
0
10
-209.98773
20
42.116173
30
-1569.2135
11
-209.07454
21
-148.02101
31
-1473.7471
0
LINE
8
0
10
-256.17746
20
-59.629658
30
-1525.3546
11
-209.07454
21
-148.02101
31
-1473.7471
0
LINE
8
0
10
-207.35408
20
-250.06049
30
-1422.261
11
-209.07454
21
-148.02101
31
-1473.7471
0
LINE
8
0
10
-162.77892
20
-324.51007
30
-1378.1589
11
-209.07454
21
-148.02101
31
-1473.7471
0
LINE
8
0
10
-240.95686
20
538.656
30
-1895.8573
11
-163.7666
21
463.43735
31
-1845.1661
0
LINE
8
0
10
-241.24075
20
537.7319
30
-1895.562
11
-163.7666
21
463.43735
31
-1845.1661
0
LINE
8
0
10
-87.50392
20
388.82474
30
-1795.5154
11
-163.7666
21
463.43735
31
-1845.1661
0
LINE
8
0
10
-85.36498
20
388.5365
30
-1793.73
11
-163.7666
21
463.43735
31
-1845.1661
0
LINE
8
0
10
-330.57355
20
193.77481
30
-1703.7614
11
-190.49944
21
-103.60538
31
-1497.9481
0
LINE
8
0
10
-61.576004
20
-32.819572
30
-1488.1161
11
-190.49944
21
-103.60538
31
-1497.9481
0
LINE
8
0
10
-207.26791
20
-250.48172
30
-1422.0059
11
-190.49944
21
-103.60538
31
-1497.9481
0
LINE
8
0
10
-162.58028
20
-324.89502
30
-1377.9092
11
-190.49944
21
-103.60538
31
-1497.9481
0
LINE
8
0
10
-814.9486
20
744.1307
30
-2203.1655
11
-700.1227
21
695.0478
31
-2146.0955
0
LINE
8
0
10
-558.1702
20
774.84467
30
-2176.1475
11
-700.1227
21
695.0478
31
-2146.0955
0
LINE
8
0
10
-611.6403
20
517.3116
30
-2001.687
11
-700.1227
21
695.0478
31
-2146.0955
0
LINE
8
0
10
-815.7314
20
743.9042
30
-2203.3816
11
-700.1227
21
695.0478
31
-2146.0955
0
LINE
8
0
10
-557.9071
20
774.96735
30
-2176.5547
11
-343.36487
21
637.86993
31
-2033.6948
0
LINE
8
0
10
-105.98413
20
983.07806
30
-2220.5317
11
-343.36487
21
637.86993
31
-2033.6948
0
LINE
8
0
10
-354.9137
20
396.88467
30
-1868.2188
11
-343.36487
21
637.86993
31
-2033.6948
0
LINE
8
0
10
-354.65457
20
396.54987
30
-1869.4744
11
-343.36487
21
637.86993
31
-2033.6948
0
LINE
8
0
10
-815.4092
20
745.13617
30
-2204.83
11
-760.3748
21
609.32776
31
-2092.753
0
LINE
8
0
10
-815.0928
20
744.1032
30
-2203.9277
11
-760.3748
21
609.32776
31
-2092.753
0
LINE
8
0
10
-650.49695
20
469.8935
30
-1973.2211
11
-760.3748
21
609.32776
31
-2092.753
0
LINE
8
0
10
-760.50055
20
478.1783
30
-1989.0332
11
-760.3748
21
609.32776
31
-2092.753
0
LINE
8
0
10
-87.36631
20
389.41873
30
-1796.4064
11
-11.745362
21
174.65598
31
-1672.5284
0
LINE
8
0
10
-89.66478
20
390.7516
30
-1799.1438
11
-11.745362
21
174.65598
31
-1672.5284
0
LINE
8
0
10
191.16093
20
-48.86493
30
-1606.3253
11
-11.745362
21
174.65598
31
-1672.5284
0
LINE
8
0
10
-61.111298
20
-32.6814
30
-1488.2384
11
-11.745362
21
174.65598
31
-1672.5284
0
LINE
8
0
10
-61.214508
20
-32.673836
30
-1488.3534
11
-61.6233
21
-32.282433
31
-1487.8363
0
LINE
8
0
10
-61.621464
20
-31.486933
30
-1487.3003
11
-61.6233
21
-32.282433
31
-1487.8363
0
LINE
8
0
10
-62.012424
20
-32.218716
30
-1487.5026
11
-61.6233
21
-32.282433
31
-1487.8363
0
LINE
8
0
10
-61.64482
20
-32.75024
30
-1488.1893
11
-61.6233
21
-32.282433
31
-1487.8363
0
LINE
8
0
10
-852.3047
20
199.04848
30
-1836.7544
11
-852.1218
21
199.08504
31
-1836.8378
0
LINE
8
0
10
-852.14667
20
198.68459
30
-1837.1781
11
-852.1218
21
199.08504
31
-1836.8378
0
LINE
8
0
10
-852.46625
20
198.89015
30
-1836.897
11
-852.1218
21
199.08504
31
-1836.8378
0
LINE
8
0
10
-851.5696
20
199.71709
30
-1836.5216
11
-852.1218
21
199.08504
31
-1836.8378
0
LINE
8
0
10
-1167.6072
20
725.8654
30
-2126.7368
11
-905.1806
21
575.7582
31
-2061.9072
0
LINE
8
0
10
-814.62445
20
743.4124
30
-2203.2832
11
-905.1806
21
575.7582
31
-2061.9072
0
LINE
8
0
10
-650.2085
20
470.24368
30
-1973.4312
11
-905.1806
21
575.7582
31
-2061.9072
0
LINE
8
0
10
-988.28235
20
363.5113
30
-1944.178
11
-905.1806
21
575.7582
31
-2061.9072
0
LINE
8
0
10
-851.8835
20
199.23323
30
-1837.149
11
-852.07916
21
199.37889
31
-1836.9458
0
LINE
8
0
10
-852.13806
20
199.7286
30
-1837.2267
11
-852.07916
21
199.37889
31
-1836.9458
0
LINE
8
0
10
-852.28644
20
199.37483
30
-1836.8511
11
-852.07916
21
199.37889
31
-1836.9458
0
LINE
8
0
10
-852.0084
20
199.17894
30
-1836.5566
11
-852.07916
21
199.37889
31
-1836.9458
0
LINE
8
0
10
-61.184837
20
-32.60806
30
-1488.3242
11
-61.468758
21
-32.324963
31
-1487.9421
0
LINE
8
0
10
-61.939877
20
-31.87046
30
-1487.2612
11
-61.468758
21
-32.324963
31
-1487.9421
0
LINE
8
0
10
-61.885834
20
-32.498116
30
-1487.8973
11
-61.468758
21
-32.324963
31
-1487.9421
0
LINE
8
0
10
-60.864483
20
-32.323223
30
-1488.2859
11
-61.468758
21
-32.324963
31
-1487.9421
0
LINE
8
0
10
-528.16205
20
719.6911
30
-2131.5938
11
-566.94965
21
680.5331
31
-2110.7532
0
LINE
8
0
10
-558.2981
20
774.64154
30
-2176.7095
11
-566.94965
21
680.5331
31
-2110.7532
0
LINE
8
0
10
-611.5643
20
517.72076
30
-2001.9535
11
-566.94965
21
680.5331
31
-2110.7532
0
LINE
8
0
10
-569.77454
20
710.0791
30
-2132.7559
11
-566.94965
21
680.5331
31
-2110.7532
0
LINE
8
0
10
-330.7244
20
193.26007
30
-1703.7031
11
-330.57538
21
193.1848
31
-1703.5709
0
LINE
8
0
10
-329.43622
20
193.27745
30
-1703.8823
11
-330.57538
21
193.1848
31
-1703.5709
0
LINE
8
0
10
-330.87152
20
192.65747
30
-1703.1038
11
-330.57538
21
193.1848
31
-1703.5709
0
LINE
8
0
10
-331.26938
20
193.54419
30
-1703.5946
11
-330.57538
21
193.1848
31
-1703.5709
0
LINE
8
0
10
-105.69544
20
983.43646
30
-2220.7273
11
-229.07005
21
698.0743
31
-2039.2039
0
LINE
8
0
10
-214.32379
20
873.9224
30
-2172.5728
11
-229.07005
21
698.0743
31
-2039.2039
0
LINE
8
0
10
-241.72574
20
537.8532
30
-1895.5546
11
-229.07005
21
698.0743
31
-2039.2039
0
LINE
8
0
10
-354.53516
20
397.0851
30
-1867.9609
11
-229.07005
21
698.0743
31
-2039.2039
0
LINE
8
0
10
191.5365
20
-49.189842
30
-1606.2673
11
63.823467
21
24.789314
31
-1557.8777
0
LINE
8
0
10
186.83922
20
212.6808
30
-1649.8257
11
63.823467
21
24.789314
31
-1557.8777
0
LINE
8
0
10
-61.557426
20
-32.0213
30
-1487.9043
11
63.823467
21
24.789314
31
-1557.8777
0
LINE
8
0
10
-61.524467
20
-32.31239
30
-1487.5133
11
63.823467
21
24.789314
31
-1557.8777
0
LINE
8
0
10
-236.71973
20
539.76874
30
-1897.3992
11
-163.0195
21
463.61774
31
-1845.4114
0
LINE
8
0
10
-242.04689
20
537.98206
30
-1895.6067
11
-163.0195
21
463.61774
31
-1845.4114
0
LINE
8
0
10
-85.59498
20
388.2743
30
-1793.3718
11
-163.0195
21
463.61774
31
-1845.4114
0
LINE
8
0
10
-87.71643
20
388.44592
30
-1795.2677
11
-163.0195
21
463.61774
31
-1845.4114
0
LINE
8
0
10
-354.05865
20
396.7216
30
-1869.7296
11
-275.7081
21
293.3374
31
-1768.2306
0
LINE
8
0
10
-88.01753
20
389.4518
30
-1795.7758
11
-275.7081
21
293.3374
31
-1768.2306
0
LINE
8
0
10
-330.41385
20
193.74625
30
-1703.4788
11
-275.7081
21
293.3374
31
-1768.2306
0
LINE
8
0
10
-330.34247
20
193.43004
30
-1703.9385
11
-275.7081
21
293.3374
31
-1768.2306
0
LINE
8
0
10
-354.66025
20
396.62955
30
-1868.626
11
-326.3873
21
432.53708
31
-1876.0232
0
LINE
8
0
10
-241.39854
20
538.5302
30
-1896.0549
11
-326.3873
21
432.53708
31
-1876.0232
0
LINE
8
0
10
-354.65225
20
396.54883
30
-1868.808
11
-326.3873
21
432.53708
31
-1876.0232
0
LINE
8
0
10
-354.83823
20
398.43973
30
-1870.6041
11
-326.3873
21
432.53708
31
-1876.0232
0
LINE
8
0
10
-611.5502
20
517.71796
30
-2001.9506
11
-589.6763
21
292.0276
31
-1832.0483
0
LINE
8
0
10
-387.63104
20
328.48837
30
-1781.1328
11
-589.6763
21
292.0276
31
-1832.0483
0
LINE
8
0
10
-680.38635
20
160.9252
30
-1772.8892
11
-589.6763
21
292.0276
31
-1832.0483
0
LINE
8
0
10
-679.1376
20
160.97884
30
-1772.221
11
-589.6763
21
292.0276
31
-1832.0483
0
LINE
8
0
10
-89.692986
20
390.4408
30
-1798.9386
11
-88.77858
21
389.865
31
-1797.4995
0
LINE
8
0
10
-85.88849
20
387.99988
30
-1793.0742
11
-88.77858
21
389.865
31
-1797.4995
0
LINE
8
0
10
-89.763016
20
390.5035
30
-1798.9906
11
-88.77858
21
389.865
31
-1797.4995
0
LINE
8
0
10
-89.769844
20
390.51562
30
-1798.9944
11
-88.77858
21
389.865
31
-1797.4995
0
LINE
8
0
10
-37.793694
20
797.7374
30
-2175.953
11
-134.95006
21
671.7537
31
-2082.3997
0
LINE
8
0
10
-16.026669
20
814.81836
30
-2363.4072
11
-134.95006
21
671.7537
31
-2082.3997
0
LINE
8
0
10
-241.4314
20
538.36255
30
-1895.7208
11
-134.95006
21
671.7537
31
-2082.3997
0
LINE
8
0
10
-244.5485
20
536.09644
30
-1894.5177
11
-134.95006
21
671.7537
31
-2082.3997
0
LINE
8
0
10
-851.5583
20
199.69891
30
-1837.0211
11
-865.4841
21
108.99957
31
-1763.8574
0
LINE
8
0
10
-852.6231
20
199.33432
30
-1836.9146
11
-865.4841
21
108.99957
31
-1763.8574
0
LINE
8
0
10
-878.7032
20
18.30101
30
-1690.6182
11
-865.4841
21
108.99957
31
-1763.8574
0
LINE
8
0
10
-879.052
20
18.664007
30
-1690.8759
11
-865.4841
21
108.99957
31
-1763.8574
0
LINE
8
0
10
-332.88367
20
194.48189
30
-1704.8535
11
-202.76205
21
186.15556
31
-1673.3264
0
LINE
8
0
10
-87.3635
20
388.9424
30
-1796.2543
11
-202.76205
21
186.15556
31
-1673.3264
0
LINE
8
0
10
-60.682873
20
-32.44534
30
-1488.1349
11
-202.76205
21
186.15556
31
-1673.3264
0
LINE
8
0
10
-330.11807
20
193.64328
30
-1704.0631
11
-202.76205
21
186.15556
31
-1673.3264
0
LINE
8
0
10
-815.33746
20
743.9651
30
-2203.4326
11
-815.1039
21
743.7931
31
-2203.432
0
LINE
8
0
10
-814.7257
20
744.11865
30
-2203.228
11
-815.1039
21
743.7931
31
-2203.432
0
LINE
8
0
10
-815.17267
20
743.53925
30
-2203.661
11
-815.1039
21
743.7931
31
-2203.432
0
LINE
8
0
10
-815.17975
20
743.54944
30
-2203.4062
11
-815.1039
21
743.7931
31
-2203.432
0
LINE
8
0
10
-236.83763
20
539.7363
30
-1897.358
11
-202.97182
21
500.88464
31
-1870.8801
0
LINE
8
0
10
-241.89992
20
538.2926
30
-1895.8809
11
-202.97182
21
500.88464
31
-1870.8801
0
LINE
8
0
10
-88.17542
20
389.31448
30
-1796.0068
11
-202.97182
21
500.88464
31
-1870.8801
0
LINE
8
0
10
-244.97424
20
536.1951
30
-1894.2748
11
-202.97182
21
500.88464
31
-1870.8801
0
ENDSEC
0
EOF
