0
SECTION
2
ENTITIES
0
LINE
8
0
10
-28.5071
20
30.294338
30
-482.69473
11
-36.18794
21
20.366661
31
-482.69473
0
LINE
8
0
10
-42.609585
20
27.864128
30
-482.69473
11
-36.18794
21
20.366661
31
-482.69473
0
LINE
8
0
10
-43.22132
20
8.4700775
30
-482.69473
11
-36.18794
21
20.366661
31
-482.69473
0
LINE
8
0
10
-30.413755
20
14.838104
30
-482.69473
11
-36.18794
21
20.366661
31
-482.69473
0
LINE
8
0
10
-23.929863
20
205.52797
30
-460.4081
11
-33.80018
21
195.80504
31
-460.4081
0
LINE
8
0
10
-43.74669
20
203.13281
30
-460.4081
11
-33.80018
21
195.80504
31
-460.4081
0
LINE
8
0
10
-39.46186
20
185.95157
30
-460.4081
11
-33.80018
21
195.80504
31
-460.4081
0
LINE
8
0
10
-28.062307
20
188.60783
30
-460.4081
11
-33.80018
21
195.80504
31
-460.4081
0
LINE
8
0
10
49.696438
20
115.813866
30
-489.43756
11
42.4331
21
105.18584
31
-489.43756
0
LINE
8
0
10
34.637344
20
111.45873
30
-489.43756
11
42.4331
21
105.18584
31
-489.43756
0
LINE
8
0
10
38.118576
20
97.71079
30
-489.43756
11
42.4331
21
105.18584
31
-489.43756
0
LINE
8
0
10
47.280045
20
95.759964
30
-489.43756
11
42.4331
21
105.18584
31
-489.43756
0
LINE
8
0
10
-33.391014
20
123.85594
30
-470.81262
11
-41.822655
21
115.23583
31
-473.94397
0
LINE
8
0
10
-51.182255
20
137.54944
30
-486.25708
11
-41.822655
21
115.23583
31
-473.94397
0
LINE
8
0
10
-49.166782
20
92.81937
30
-467.87485
11
-41.822655
21
115.23583
31
-473.94397
0
LINE
8
0
10
-33.55056
20
106.718575
30
-470.8313
11
-41.822655
21
115.23583
31
-473.94397
0
LINE
8
0
10
46.74529
20
36.597984
30
-490.1573
11
38.08368
21
28.358137
31
-490.1573
0
LINE
8
0
10
28.416782
20
34.115025
30
-490.1573
11
38.08368
21
28.358137
31
-490.1573
0
LINE
8
0
10
35.062805
20
23.48543
30
-490.1573
11
38.08368
21
28.358137
31
-490.1573
0
LINE
8
0
10
42.109844
20
19.234108
30
-490.1573
11
38.08368
21
28.358137
31
-490.1573
0
LINE
8
0
10
15.066997
20
158.07869
30
-472.92154
11
10.942589
21
149.20859
31
-473.0042
0
LINE
8
0
10
6.6998982
20
151.19374
30
-473.87286
11
10.942589
21
149.20859
31
-473.0042
0
LINE
8
0
10
26.804003
20
148.30003
30
-467.09924
11
10.942589
21
149.20859
31
-473.0042
0
LINE
8
0
10
-4.800544
20
139.26187
30
-478.12317
11
10.942589
21
149.20859
31
-473.0042
0
LINE
8
0
10
1.7835233
20
60.26691
30
-466.81955
11
-5.599754
21
52.62141
31
-467.0935
0
LINE
8
0
10
-23.689392
20
43.563942
30
-466.6553
11
-5.599754
21
52.62141
31
-467.0935
0
LINE
8
0
10
-2.2483592
20
64.40817
30
-468.07965
11
-5.599754
21
52.62141
31
-467.0935
0
LINE
8
0
10
1.7552124
20
42.246616
30
-466.81952
11
-5.599754
21
52.62141
31
-467.0935
0
LINE
8
0
10
-37.15585
20
174.43083
30
-464.07916
11
-56.433678
21
156.83536
31
-471.5695
0
LINE
8
0
10
-62.475185
20
162.68666
30
-476.83487
11
-56.433678
21
156.83536
31
-471.5695
0
LINE
8
0
10
-58.297142
20
145.69482
30
-476.81528
11
-56.433678
21
156.83536
31
-471.5695
0
LINE
8
0
10
-67.806526
20
144.52914
30
-468.54865
11
-56.433678
21
156.83536
31
-471.5695
0
LINE
8
0
10
5.3945265
20
111.07488
30
-467.12796
11
-3.9251366
21
93.03999
31
-466.14294
0
LINE
8
0
10
-14.549952
20
97.67987
30
-465.4992
11
-3.9251366
21
93.03999
31
-466.14294
0
LINE
8
0
10
-8.080666
20
90.84765
30
-467.12854
11
-3.9251366
21
93.03999
31
-466.14294
0
LINE
8
0
10
1.535545
20
72.55756
30
-464.8161
11
-3.9251366
21
93.03999
31
-466.14294
0
LINE
8
0
10
13.283453
20
-5.289347
30
-472.90216
11
10.606754
21
-5.929085
31
-469.95038
0
LINE
8
0
10
3.4564865
20
5.271282
30
-468.96582
11
10.606754
21
-5.929085
31
-469.95038
0
LINE
8
0
10
7.3679433
20
-11.233529
30
-468.96634
11
10.606754
21
-5.929085
31
-469.95038
0
LINE
8
0
10
18.319138
20
-12.4647455
30
-468.96716
11
10.606754
21
-5.929085
31
-469.95038
0
LINE
8
0
10
29.683508
20
78.05177
30
-478.65625
11
22.13143
21
63.38887
31
-479.07117
0
LINE
8
0
10
17.83976
20
74.010666
30
-478.6667
11
22.13143
21
63.38887
31
-479.07117
0
LINE
8
0
10
13.21538
20
41.541637
30
-480.2957
11
22.13143
21
63.38887
31
-479.07117
0
LINE
8
0
10
27.787071
20
59.951405
30
-478.666
11
22.13143
21
63.38887
31
-479.07117
0
LINE
8
0
10
55.21822
20
154.5999
30
-494.99457
11
46.140324
21
143.75388
31
-494.99457
0
LINE
8
0
10
36.356216
20
152.67343
30
-494.99457
11
46.140324
21
143.75388
31
-494.99457
0
LINE
8
0
10
40.06071
20
133.23592
30
-494.99457
11
46.140324
21
143.75388
31
-494.99457
0
LINE
8
0
10
52.92615
20
134.50632
30
-494.99457
11
46.140324
21
143.75388
31
-494.99457
0
LINE
8
0
10
21.706646
20
202.17514
30
-471.7293
11
14.07248
21
194.45767
31
-471.7293
0
LINE
8
0
10
7.132842
20
198.9012
30
-471.7293
11
14.07248
21
194.45767
31
-471.7293
0
LINE
8
0
10
9.071293
20
184.61327
30
-471.7293
11
14.07248
21
194.45767
31
-471.7293
0
LINE
8
0
10
18.379139
20
192.14107
30
-471.7293
11
14.07248
21
194.45767
31
-471.7293
0
LINE
8
0
10
-16.883593
20
92.14137
30
-468.14984
11
-23.872974
21
82.99351
31
-468.14984
0
LINE
8
0
10
-31.344624
20
88.61422
30
-468.14984
11
-23.872974
21
82.99351
31
-468.14984
0
LINE
8
0
10
-27.68734
20
76.41443
30
-468.14984
11
-23.872974
21
82.99351
31
-468.14984
0
LINE
8
0
10
-19.576342
20
74.80402
30
-468.14984
11
-23.872974
21
82.99351
31
-468.14984
0
LINE
8
0
10
-8.817188
20
177.04689
30
-464.10507
11
-22.370432
21
164.99344
31
-463.8589
0
LINE
8
0
10
-42.579094
20
179.83801
30
-464.20035
11
-22.370432
21
164.99344
31
-463.8589
0
LINE
8
0
10
-21.80612
20
159.76738
30
-464.10507
11
-22.370432
21
164.99344
31
-463.8589
0
LINE
8
0
10
-16.279325
20
143.32146
30
-463.02505
11
-22.370432
21
164.99344
31
-463.8589
0
LINE
8
0
10
-47.946136
20
201.74055
30
-483.1089
11
-59.510117
21
191.13976
31
-483.1089
0
LINE
8
0
10
-71.338524
20
200.13945
30
-483.1089
11
-59.510117
21
191.13976
31
-483.1089
0
LINE
8
0
10
-66.74137
20
177.69121
30
-483.1089
11
-59.510117
21
191.13976
31
-483.1089
0
LINE
8
0
10
-52.014427
20
184.98778
30
-483.1089
11
-59.510117
21
191.13976
31
-483.1089
0
LINE
8
0
10
17.606665
20
36.66031
30
-469.58676
11
6.364468
21
25.92432
31
-469.42535
0
LINE
8
0
10
2.5873728
20
34.298122
30
-469.58676
11
6.364468
21
25.92432
31
-469.42535
0
LINE
8
0
10
-11.005646
20
16.517073
30
-468.94083
11
6.364468
21
25.92432
31
-469.42535
0
LINE
8
0
10
16.26948
20
16.22177
30
-469.58707
11
6.364468
21
25.92432
31
-469.42535
0
LINE
8
0
10
53.995426
20
78.400246
30
-498.83502
11
47.557503
21
68.23125
31
-498.83502
0
LINE
8
0
10
41.699516
20
77.52967
30
-498.83502
11
47.557503
21
68.23125
31
-498.83502
0
LINE
8
0
10
40.999966
20
58.68453
30
-498.83502
11
47.557503
21
68.23125
31
-498.83502
0
LINE
8
0
10
53.535095
20
58.310555
30
-498.83502
11
47.557503
21
68.23125
31
-498.83502
0
LINE
8
0
10
-17.603998
20
56.72746
30
-471.62903
11
-28.535954
21
47.23842
31
-471.28998
0
LINE
8
0
10
-44.768898
20
54.225647
30
-470.27576
11
-28.535954
21
47.23842
31
-471.28998
0
LINE
8
0
10
-30.262653
20
42.272236
30
-471.6273
11
-28.535954
21
47.23842
31
-471.28998
0
LINE
8
0
10
-21.50827
20
35.728325
30
-471.6279
11
-28.535954
21
47.23842
31
-471.28998
0
LINE
8
0
10
-53.865593
20
133.28363
30
-494.98004
11
-61.5083
21
123.46303
31
-494.98004
0
LINE
8
0
10
-70.55587
20
131.01823
30
-494.98004
11
-61.5083
21
123.46303
31
-494.98004
0
LINE
8
0
10
-65.748474
20
116.161705
30
-494.98004
11
-61.5083
21
123.46303
31
-494.98004
0
LINE
8
0
10
-55.863262
20
113.38852
30
-494.98004
11
-61.5083
21
123.46303
31
-494.98004
0
LINE
8
0
10
-12.0780735
20
152.05336
30
-464.87738
11
-19.78593
21
141.72423
31
-464.87738
0
LINE
8
0
10
-29.710825
20
149.1854
30
-464.87738
11
-19.78593
21
141.72423
31
-464.87738
0
LINE
8
0
10
-23.10084
20
135.90825
30
-464.87738
11
-19.78593
21
141.72423
31
-464.87738
0
LINE
8
0
10
-14.253986
20
129.74986
30
-464.87738
11
-19.78593
21
141.72423
31
-464.87738
0
LINE
8
0
10
22.41226
20
122.2389
30
-489.41995
11
18.518446
21
120.231064
31
-480.21603
0
LINE
8
0
10
9.990637
20
130.66927
30
-477.14807
11
18.518446
21
120.231064
31
-480.21603
0
LINE
8
0
10
16.443983
20
117.48546
30
-477.14807
11
18.518446
21
120.231064
31
-480.21603
0
LINE
8
0
10
25.226904
20
110.53063
30
-477.14807
11
18.518446
21
120.231064
31
-480.21603
0
LINE
8
0
10
31.371496
20
169.03937
30
-479.40805
11
29.743149
21
167.69792
31
-478.34537
0
LINE
8
0
10
22.182117
20
169.20575
30
-479.4134
11
29.743149
21
167.69792
31
-478.34537
0
LINE
8
0
10
33.96953
20
175.31772
30
-475.1439
11
29.743149
21
167.69792
31
-478.34537
0
LINE
8
0
10
31.449455
20
157.22882
30
-479.41617
11
29.743149
21
167.69792
31
-478.34537
0
LINE
8
0
10
-52.074123
20
102.28324
30
-495.0455
11
-55.512363
21
94.59721
31
-495.0455
0
LINE
8
0
10
-60.090343
20
98.80079
30
-495.0455
11
-55.512363
21
94.59721
31
-495.0455
0
LINE
8
0
10
-57.04651
20
92.404305
30
-495.0455
11
-55.512363
21
94.59721
31
-495.0455
0
LINE
8
0
10
-52.83849
20
84.90052
30
-495.0455
11
-55.512363
21
94.59721
31
-495.0455
0
LINE
8
0
10
-5.6311874
20
9.452511
30
-467.06287
11
-11.174713
21
-0.9020088
31
-467.06287
0
LINE
8
0
10
-16.201597
20
6.0759754
30
-467.06287
11
-11.174713
21
-0.9020088
31
-467.06287
0
LINE
8
0
10
-16.234081
20
-8.385941
30
-467.06287
11
-11.174713
21
-0.9020088
31
-467.06287
0
LINE
8
0
10
-6.6319885
20
-10.750581
30
-467.06287
11
-11.174713
21
-0.9020088
31
-467.06287
0
LINE
8
0
10
37.633205
20
53.660824
30
-483.0436
11
32.491905
21
50.354794
31
-483.0436
0
LINE
8
0
10
24.244627
20
53.500225
30
-483.0436
11
32.491905
21
50.354794
31
-483.0436
0
LINE
8
0
10
31.83549
20
46.79958
30
-483.0436
11
32.491905
21
50.354794
31
-483.0436
0
LINE
8
0
10
36.25431
20
47.458546
30
-483.0436
11
32.491905
21
50.354794
31
-483.0436
0
LINE
8
0
10
-12.953781
20
143.8846
30
-474.8835
11
-8.789293
21
121.53392
31
-469.16873
0
LINE
8
0
10
-15.866684
20
136.9424
30
-466.93692
11
-8.789293
21
121.53392
31
-469.16873
0
LINE
8
0
10
-12.032214
20
114.86257
30
-466.95837
11
-8.789293
21
121.53392
31
-469.16873
0
LINE
8
0
10
5.695506
20
90.44612
30
-467.8961
11
-8.789293
21
121.53392
31
-469.16873
0
LINE
8
0
10
28.68331
20
105.69508
30
-479.0518
11
22.606213
21
98.12055
31
-479.0518
0
LINE
8
0
10
14.815001
20
105.48722
30
-479.0518
11
22.606213
21
98.12055
31
-479.0518
0
LINE
8
0
10
18.539007
20
90.65785
30
-479.0518
11
22.606213
21
98.12055
31
-479.0518
0
LINE
8
0
10
28.387535
20
90.64205
30
-479.0518
11
22.606213
21
98.12055
31
-479.0518
0
LINE
8
0
10
-42.117542
20
54.145557
30
-493.57742
11
-48.687214
21
45.467304
31
-493.57742
0
LINE
8
0
10
-57.448082
20
54.439716
30
-493.57742
11
-48.687214
21
45.467304
31
-493.57742
0
LINE
8
0
10
-53.244354
20
37.401703
30
-493.57742
11
-48.687214
21
45.467304
31
-493.57742
0
LINE
8
0
10
-41.938873
20
35.882244
30
-493.57742
11
-48.687214
21
45.467304
31
-493.57742
0
LINE
8
0
10
14.50633
20
188.66968
30
-469.75058
11
3.1983447
21
175.05899
31
-468.35907
0
LINE
8
0
10
-9.164661
20
187.66135
30
-464.27817
11
3.1983447
21
175.05899
31
-468.35907
0
LINE
8
0
10
-3.7769148
20
162.31409
30
-469.71326
11
3.1983447
21
175.05899
31
-468.35907
0
LINE
8
0
10
11.228625
20
161.5908
30
-469.69427
11
3.1983447
21
175.05899
31
-468.35907
0
LINE
8
0
10
-28.18843
20
180.99702
30
-465.72806
11
-37.147907
21
166.51636
31
-465.09335
0
LINE
8
0
10
-41.620953
20
177.26285
30
-465.4421
11
-37.147907
21
166.51636
31
-465.09335
0
LINE
8
0
10
-45.16401
20
155.23224
30
-465.46228
11
-37.147907
21
166.51636
31
-465.09335
0
LINE
8
0
10
-33.618237
20
152.57329
30
-463.74097
11
-37.147907
21
166.51636
31
-465.09335
0
LINE
8
0
10
19.652693
20
98.495514
30
-473.0316
11
10.864487
21
79.37323
31
-470.94504
0
LINE
8
0
10
1.3837147
20
72.089584
30
-464.72696
11
10.864487
21
79.37323
31
-470.94504
0
LINE
8
0
10
4.713269
20
74.68013
30
-472.99173
11
10.864487
21
79.37323
31
-470.94504
0
LINE
8
0
10
17.708273
20
72.22769
30
-473.02985
11
10.864487
21
79.37323
31
-470.94504
0
LINE
8
0
10
-11.472336
20
73.53986
30
-467.75934
11
-19.139729
21
63.533714
31
-467.75934
0
LINE
8
0
10
-28.498741
20
73.16756
30
-467.75934
11
-19.139729
21
63.533714
31
-467.75934
0
LINE
8
0
10
-24.655567
20
53.9521
30
-467.75934
11
-19.139729
21
63.533714
31
-467.75934
0
LINE
8
0
10
-11.932262
20
53.47533
30
-467.75934
11
-19.139729
21
63.533714
31
-467.75934
0
LINE
8
0
10
-3.4022655
20
204.86292
30
-463.79425
11
-11.733402
21
193.75438
31
-463.79425
0
LINE
8
0
10
-22.895035
20
204.19774
30
-463.79425
11
-11.733402
21
193.75438
31
-463.79425
0
LINE
8
0
10
-16.581291
20
185.38972
30
-463.79425
11
-11.733402
21
193.75438
31
-463.79425
0
LINE
8
0
10
-4.055016
20
180.56714
30
-463.79425
11
-11.733402
21
193.75438
31
-463.79425
0
LINE
8
0
10
-5.6659155
20
32.173157
30
-468.45236
11
-16.280685
21
20.385006
31
-468.45236
0
LINE
8
0
10
-26.843533
20
29.027916
30
-468.45236
11
-16.280685
21
20.385006
31
-468.45236
0
LINE
8
0
10
-22.67591
20
9.786701
30
-468.45236
11
-16.280685
21
20.385006
31
-468.45236
0
LINE
8
0
10
-9.937381
20
10.552245
30
-468.45236
11
-16.280685
21
20.385006
31
-468.45236
0
LINE
8
0
10
-17.664194
20
109.89907
30
-467.04266
11
-22.841166
21
101.858505
31
-467.04266
0
LINE
8
0
10
-27.553913
20
108.982315
30
-467.04266
11
-22.841166
21
101.858505
31
-467.04266
0
LINE
8
0
10
-27.940725
20
94.289055
30
-467.04266
11
-22.841166
21
101.858505
31
-467.04266
0
LINE
8
0
10
-18.205826
20
94.263565
30
-467.04266
11
-22.841166
21
101.858505
31
-467.04266
0
LINE
8
0
10
-34.523964
20
154.33665
30
-470.59225
11
-45.71878
21
141.14877
31
-470.06516
0
LINE
8
0
10
-68.26969
20
144.35178
30
-468.48523
11
-45.71878
21
141.14877
31
-470.06516
0
LINE
8
0
10
-43.943394
20
137.40424
30
-470.59116
11
-45.71878
21
141.14877
31
-470.06516
0
LINE
8
0
10
-36.138073
20
128.50247
30
-470.592
11
-45.71878
21
141.14877
31
-470.06516
0
LINE
8
0
10
50.27297
20
98.10641
30
-490.0623
11
42.276363
21
86.5321
31
-490.0623
0
LINE
8
0
10
33.82564
20
93.57657
30
-490.0623
11
42.276363
21
86.5321
31
-490.0623
0
LINE
8
0
10
37.327835
20
78.04315
30
-490.0623
11
42.276363
21
86.5321
31
-490.0623
0
LINE
8
0
10
47.67901
20
76.402245
30
-490.0623
11
42.276363
21
86.5321
31
-490.0623
0
LINE
8
0
10
34.98925
20
153.8308
30
-480.5241
11
27.963366
21
138.47923
31
-481.2166
0
LINE
8
0
10
17.56299
20
137.71272
30
-470.63715
11
27.963366
21
138.47923
31
-481.2166
0
LINE
8
0
10
27.516407
20
142.62318
30
-480.5249
11
27.963366
21
138.47923
31
-481.2166
0
LINE
8
0
10
31.784815
20
119.75027
30
-493.1803
11
27.963366
21
138.47923
31
-481.2166
0
LINE
8
0
10
-41.698353
20
119.02178
30
-485.71872
11
-43.319145
21
98.489296
31
-474.42114
0
LINE
8
0
10
-47.853382
20
107.17157
30
-472.94034
11
-43.319145
21
98.489296
31
-474.42114
0
LINE
8
0
10
-41.00617
20
96.238785
30
-472.86514
11
-43.319145
21
98.489296
31
-474.42114
0
LINE
8
0
10
-42.71868
20
71.525055
30
-466.1603
11
-43.319145
21
98.489296
31
-474.42114
0
LINE
8
0
10
-36.412727
20
71.05205
30
-475.55414
11
-44.365158
21
62.662598
31
-475.95892
0
LINE
8
0
10
-50.52856
20
68.239395
30
-479.03076
11
-44.365158
21
62.662598
31
-475.95892
0
LINE
8
0
10
-45.750465
20
57.133305
30
-478.97507
11
-44.365158
21
62.662598
31
-475.95892
0
LINE
8
0
10
-44.768898
20
54.225647
30
-470.27576
11
-44.365158
21
62.662598
31
-475.95892
0
LINE
8
0
10
41.299053
20
25.223288
30
-480.28378
11
29.962019
21
11.663434
31
-480.28378
0
LINE
8
0
10
18.207283
20
22.094732
30
-480.28378
11
29.962019
21
11.663434
31
-480.28378
0
LINE
8
0
10
23.028446
20
0.5690235
30
-480.28378
11
29.962019
21
11.663434
31
-480.28378
0
LINE
8
0
10
37.313293
20
-1.2333072
30
-480.28378
11
29.962019
21
11.663434
31
-480.28378
0
LINE
8
0
10
1.1483182
20
87.09992
30
-466.48132
11
-6.458864
21
77.199234
31
-466.48132
0
LINE
8
0
10
-14.101413
20
82.87911
30
-466.48132
11
-6.458864
21
77.199234
31
-466.48132
0
LINE
8
0
10
-10.772738
20
69.82645
30
-466.48132
11
-6.458864
21
77.199234
31
-466.48132
0
LINE
8
0
10
-2.109622
20
68.99146
30
-466.48132
11
-6.458864
21
77.199234
31
-466.48132
0
LINE
8
0
10
49.556503
20
169.42018
30
-494.54443
11
41.79746
21
157.83
31
-494.25226
0
LINE
8
0
10
44.593872
20
168.04567
30
-494.54037
11
41.79746
21
157.83
31
-494.25226
0
LINE
8
0
10
23.801756
20
141.39348
30
-493.38113
11
41.79746
21
157.83
31
-494.25226
0
LINE
8
0
10
49.237705
20
152.46068
30
-494.543
11
41.79746
21
157.83
31
-494.25226
0
LINE
8
0
10
-50.23929
20
115.39362
30
-485.85477
11
-56.19129
21
108.392624
31
-485.85477
0
LINE
8
0
10
-63.84293
20
115.37921
30
-485.85477
11
-56.19129
21
108.392624
31
-485.85477
0
LINE
8
0
10
-60.359283
20
100.25512
30
-485.85477
11
-56.19129
21
108.392624
31
-485.85477
0
LINE
8
0
10
-50.32366
20
102.54254
30
-485.85477
11
-56.19129
21
108.392624
31
-485.85477
0
LINE
8
0
10
21.536652
20
65.73517
30
-472.52798
11
12.634796
21
50.797207
31
-473.3716
0
LINE
8
0
10
12.524689
20
62.895226
30
-472.543
11
12.634796
21
50.797207
31
-473.3716
0
LINE
8
0
10
-3.5339577
20
27.998753
30
-475.87552
11
12.634796
21
50.797207
31
-473.3716
0
LINE
8
0
10
20.011803
20
46.559677
30
-472.53998
11
12.634796
21
50.797207
31
-473.3716
0
LINE
8
0
10
4.129445
20
165.48293
30
-467.6885
11
-3.0207274
21
150.96149
31
-465.88052
0
LINE
8
0
10
-16.436834
20
142.84885
30
-462.98233
11
-3.0207274
21
150.96149
31
-465.88052
0
LINE
8
0
10
-0.9263668
20
152.51053
30
-465.18103
11
-3.0207274
21
150.96149
31
-465.88052
0
LINE
8
0
10
1.1508466
20
143.00365
30
-467.67026
11
-3.0207274
21
150.96149
31
-465.88052
0
LINE
8
0
10
-55.69621
20
177.81274
30
-492.1879
11
-61.045578
21
167.05557
31
-492.1879
0
LINE
8
0
10
-62.75347
20
173.0261
30
-492.1879
11
-61.045578
21
167.05557
31
-492.1879
0
LINE
8
0
10
-67.74675
20
158.64359
30
-492.1879
11
-61.045578
21
167.05557
31
-492.1879
0
LINE
8
0
10
-57.98588
20
158.73988
30
-492.1879
11
-61.045578
21
167.05557
31
-492.1879
0
LINE
8
0
10
-9.861845
20
128.58388
30
-465.70132
11
-17.99861
21
115.44424
31
-465.64786
0
LINE
8
0
10
-25.166618
20
125.29402
30
-465.70132
11
-17.99861
21
115.44424
31
-465.64786
0
LINE
8
0
10
-22.272192
20
110.6979
30
-465.70132
11
-17.99861
21
115.44424
31
-465.64786
0
LINE
8
0
10
-14.693779
20
97.20115
30
-465.4875
11
-17.99861
21
115.44424
31
-465.64786
0
LINE
8
0
10
28.305962
20
187.55899
30
-475.88666
11
23.759636
21
180.30814
31
-475.88666
0
LINE
8
0
10
19.406717
20
184.05919
30
-475.88666
11
23.759636
21
180.30814
31
-475.88666
0
LINE
8
0
10
21.133959
20
176.4726
30
-475.88666
11
23.759636
21
180.30814
31
-475.88666
0
LINE
8
0
10
26.191908
20
173.14182
30
-475.88666
11
23.759636
21
180.30814
31
-475.88666
0
LINE
8
0
10
37.53674
20
203.96349
30
-479.8812
11
29.066135
21
196.18452
31
-479.8812
0
LINE
8
0
10
20.81963
20
201.00975
30
-479.8812
11
29.066135
21
196.18452
31
-479.8812
0
LINE
8
0
10
24.216192
20
186.48589
30
-479.8812
11
29.066135
21
196.18452
31
-479.8812
0
LINE
8
0
10
33.69198
20
193.27899
30
-479.8812
11
29.066135
21
196.18452
31
-479.8812
0
LINE
8
0
10
-2.0919368
20
64.882385
30
-468.1052
11
-16.020039
21
41.923595
31
-467.4524
0
LINE
8
0
10
-17.865608
20
44.076714
30
-467.50748
11
-16.020039
21
41.923595
31
-467.4524
0
LINE
8
0
10
-16.70742
20
30.53368
30
-467.50888
11
-16.020039
21
41.923595
31
-467.4524
0
LINE
8
0
10
-27.41519
20
28.201605
30
-466.68805
11
-16.020039
21
41.923595
31
-467.4524
0
LINE
8
0
10
-3.8090794
20
27.592524
30
-475.9719
11
0.27527308
21
34.256638
31
-469.76633
0
LINE
8
0
10
-5.6386724
20
49.249256
30
-467.6785
11
0.27527308
21
34.256638
31
-469.76633
0
LINE
8
0
10
-0.4685487
20
32.059277
30
-467.74542
11
0.27527308
21
34.256638
31
-469.76633
0
LINE
8
0
10
11.017393
20
28.125494
30
-467.66956
11
0.27527308
21
34.256638
31
-469.76633
0
LINE
8
0
10
16.784729
20
20.584936
30
-469.0776
11
5.5844274
21
10.217221
31
-470.14413
0
LINE
8
0
10
-11.495559
20
16.417772
30
-468.92966
11
5.5844274
21
10.217221
31
-470.14413
0
LINE
8
0
10
1.7665637
20
-0.5874249
30
-473.49176
11
5.5844274
21
10.217221
31
-470.14413
0
LINE
8
0
10
15.281976
20
4.4536014
30
-469.0776
11
5.5844274
21
10.217221
31
-470.14413
0
LINE
8
0
10
-9.595905
20
187.88397
30
-464.15787
11
-9.855177
21
178.1496
31
-465.61444
0
LINE
8
0
10
-16.122904
20
184.61829
30
-466.10013
11
-9.855177
21
178.1496
31
-465.61444
0
LINE
8
0
10
-11.293216
20
171.24219
30
-466.09982
11
-9.855177
21
178.1496
31
-465.61444
0
LINE
8
0
10
-2.4086838
20
168.85396
30
-466.09998
11
-9.855177
21
178.1496
31
-465.61444
0
LINE
8
0
10
-16.894337
20
169.31488
30
-464.3112
11
-26.77471
21
156.07706
31
-464.3112
0
LINE
8
0
10
-36.977814
20
165.4481
30
-464.3112
11
-26.77471
21
156.07706
31
-464.3112
0
LINE
8
0
10
-33.299164
20
145.32231
30
-464.3112
11
-26.77471
21
156.07706
31
-464.3112
0
LINE
8
0
10
-19.927526
20
144.2229
30
-464.3112
11
-26.77471
21
156.07706
31
-464.3112
0
LINE
8
0
10
-35.610126
20
198.71472
30
-464.07916
11
-45.039677
21
186.9363
31
-464.07916
0
LINE
8
0
10
-56.466995
20
197.68015
30
-464.07916
11
-45.039677
21
186.9363
31
-464.07916
0
LINE
8
0
10
-50.92574
20
176.91948
30
-464.07916
11
-45.039677
21
186.9363
31
-464.07916
0
LINE
8
0
10
-37.15585
20
174.43083
30
-464.07916
11
-45.039677
21
186.9363
31
-464.07916
0
LINE
8
0
10
34.38177
20
92.09946
30
-479.87146
11
25.666016
21
83.18022
31
-479.87146
0
LINE
8
0
10
17.408562
20
89.38686
30
-479.87146
11
25.666016
21
83.18022
31
-479.87146
0
LINE
8
0
10
19.72855
20
72.03122
30
-479.87146
11
25.666016
21
83.18022
31
-479.87146
0
LINE
8
0
10
31.14518
20
79.20334
30
-479.87146
11
25.666016
21
83.18022
31
-479.87146
0
LINE
8
0
10
0.70872974
20
79.261925
30
-465.71155
11
-10.176459
21
88.14947
31
-466.08377
0
LINE
8
0
10
-20.662594
20
100.74807
30
-466.21048
11
-10.176459
21
88.14947
31
-466.08377
0
LINE
8
0
10
-16.27573
20
82.66175
30
-466.2084
11
-10.176459
21
88.14947
31
-466.08377
0
LINE
8
0
10
-4.476241
20
89.92612
30
-466.20462
11
-10.176459
21
88.14947
31
-466.08377
0
LINE
8
0
10
34.79238
20
119.76342
30
-480.91547
11
24.072426
21
109.61804
31
-481.3458
0
LINE
8
0
10
21.376982
20
116.03459
30
-480.9226
11
24.072426
21
109.61804
31
-481.3458
0
LINE
8
0
10
15.237033
20
94.909645
30
-479.90204
11
24.072426
21
109.61804
31
-481.3458
0
LINE
8
0
10
24.883307
20
107.76453
30
-483.64307
11
24.072426
21
109.61804
31
-481.3458
0
LINE
8
0
10
-20.024841
20
55.346046
30
-484.2233
11
-37.02705
21
34.27574
31
-482.70953
0
LINE
8
0
10
-49.75633
20
41.650055
30
-482.20493
11
-37.02705
21
34.27574
31
-482.70953
0
LINE
8
0
10
-46.073048
20
20.932343
30
-482.20493
11
-37.02705
21
34.27574
31
-482.70953
0
LINE
8
0
10
-32.25398
20
19.174517
30
-482.20493
11
-37.02705
21
34.27574
31
-482.70953
0
LINE
8
0
10
-18.916637
20
193.1802
30
-462.16577
11
-22.616825
21
185.603
31
-462.16577
0
LINE
8
0
10
-25.79614
20
190.3677
30
-462.16577
11
-22.616825
21
185.603
31
-462.16577
0
LINE
8
0
10
-26.06415
20
180.64856
30
-462.16577
11
-22.616825
21
185.603
31
-462.16577
0
LINE
8
0
10
-19.69038
20
178.2155
30
-462.16577
11
-22.616825
21
185.603
31
-462.16577
0
LINE
8
0
10
34.95471
20
12.245896
30
-476.50314
11
26.982338
21
-0.345088
31
-476.50314
0
LINE
8
0
10
18.759548
20
9.417737
30
-476.50314
11
26.982338
21
-0.345088
31
-476.50314
0
LINE
8
0
10
20.45031
20
-10.574592
30
-476.50314
11
26.982338
21
-0.345088
31
-476.50314
0
LINE
8
0
10
33.764782
20
-12.469394
30
-476.50314
11
26.982338
21
-0.345088
31
-476.50314
0
LINE
8
0
10
29.732143
20
106.3094
30
-477.67862
11
30.122694
21
130.91275
31
-475.2407
0
LINE
8
0
10
27.240894
20
148.45998
30
-466.9161
11
30.122694
21
130.91275
31
-475.2407
0
LINE
8
0
10
28.132795
20
138.63637
30
-475.45493
11
30.122694
21
130.91275
31
-475.2407
0
LINE
8
0
10
35.38494
20
130.24522
30
-480.91312
11
30.122694
21
130.91275
31
-475.2407
0
LINE
8
0
10
-17.04456
20
22.944881
30
-473.1888
11
-25.695158
21
8.863474
31
-473.1888
0
LINE
8
0
10
-33.52054
20
19.238277
30
-473.1888
11
-25.695158
21
8.863474
31
-473.1888
0
LINE
8
0
10
-33.438507
20
-2.7934828
30
-473.1888
11
-25.695158
21
8.863474
31
-473.1888
0
LINE
8
0
10
-18.777029
20
-3.9357796
30
-473.1888
11
-25.695158
21
8.863474
31
-473.1888
0
LINE
8
0
10
-32.007923
20
87.25132
30
-475.0752
11
-39.81215
21
79.49455
31
-475.0752
0
LINE
8
0
10
-48.284256
20
84.61868
30
-475.0752
11
-39.81215
21
79.49455
31
-475.0752
0
LINE
8
0
10
-42.86308
20
74.38725
30
-475.0752
11
-39.81215
21
79.49455
31
-475.0752
0
LINE
8
0
10
-36.093338
20
71.72098
30
-475.0752
11
-39.81215
21
79.49455
31
-475.0752
0
LINE
8
0
10
3.2782636
20
22.750887
30
-466.79602
11
-7.5499945
21
8.215956
31
-466.72177
0
LINE
8
0
10
-15.668181
20
20.620153
30
-466.79602
11
-7.5499945
21
8.215956
31
-466.72177
0
LINE
8
0
10
-18.470478
20
-12.384588
30
-466.4991
11
-7.5499945
21
8.215956
31
-466.72177
0
LINE
8
0
10
0.66041833
20
1.8773702
30
-466.796
11
-7.5499945
21
8.215956
31
-466.72177
0
LINE
8
0
10
51.504177
20
130.65489
30
-491.97574
11
43.54729
21
122.75078
31
-492.3994
0
LINE
8
0
10
40.997166
20
127.30837
30
-492.2141
11
43.54729
21
122.75078
31
-492.3994
0
LINE
8
0
10
31.784815
20
119.75027
30
-493.1803
11
43.54729
21
122.75078
31
-492.3994
0
LINE
8
0
10
49.903008
20
113.2896
30
-492.2275
11
43.54729
21
122.75078
31
-492.3994
0
LINE
8
0
10
-28.982208
20
83.461784
30
-467.4835
11
-32.900772
21
71.94611
31
-470.24896
0
LINE
8
0
10
-41.676975
20
79.38235
30
-471.18576
11
-32.900772
21
71.94611
31
-470.24896
0
LINE
8
0
10
-35.88502
20
63.09939
30
-471.16238
11
-32.900772
21
71.94611
31
-470.24896
0
LINE
8
0
10
-25.058887
20
61.840942
30
-471.16415
11
-32.900772
21
71.94611
31
-470.24896
0
LINE
8
0
10
-5.5150127
20
141.18227
30
-468.10565
11
-26.359097
21
128.36908
31
-467.5187
0
LINE
8
0
10
-39.72628
20
134.10481
30
-467.32285
11
-26.359097
21
128.36908
31
-467.5187
0
LINE
8
0
10
-34.510647
20
120.84449
30
-467.3235
11
-26.359097
21
128.36908
31
-467.5187
0
LINE
8
0
10
-25.684444
20
117.344765
30
-467.32288
11
-26.359097
21
128.36908
31
-467.5187
0
LINE
8
0
10
49.81212
20
67.23398
30
-492.50534
11
42.158104
21
56.312042
31
-490.1399
0
LINE
8
0
10
34.841694
20
63.849953
30
-492.50534
11
42.158104
21
56.312042
31
-490.1399
0
LINE
8
0
10
36.25431
20
47.458546
30
-483.0436
11
42.158104
21
56.312042
31
-490.1399
0
LINE
8
0
10
47.72429
20
46.705696
30
-492.50534
11
42.158104
21
56.312042
31
-490.1399
0
LINE
8
0
10
25.946194
20
43.920517
30
-475.446
11
22.166733
21
38.11258
31
-474.8492
0
LINE
8
0
10
15.56364
20
43.750576
30
-475.4331
11
22.166733
21
38.11258
31
-474.8492
0
LINE
8
0
10
9.296551
20
14.66776
30
-476.67798
11
22.166733
21
38.11258
31
-474.8492
0
LINE
8
0
10
37.860546
20
50.111458
30
-471.83978
11
22.166733
21
38.11258
31
-474.8492
0
LINE
8
0
10
-56.68215
20
189.48653
30
-497.7319
11
-64.638
21
179.26677
31
-497.7319
0
LINE
8
0
10
-73.97157
20
186.402
30
-497.7319
11
-64.638
21
179.26677
31
-497.7319
0
LINE
8
0
10
-68.61001
20
172.40373
30
-497.7319
11
-64.638
21
179.26677
31
-497.7319
0
LINE
8
0
10
-59.288254
20
168.77486
30
-497.7319
11
-64.638
21
179.26677
31
-497.7319
0
LINE
8
0
10
14.030577
20
122.91618
30
-470.98056
11
4.459882
21
106.44589
31
-473.19012
0
LINE
8
0
10
1.5371666
20
119.50806
30
-471.79044
11
4.459882
21
106.44589
31
-473.19012
0
LINE
8
0
10
0.6698043
20
101.525055
30
-471.81613
11
4.459882
21
106.44589
31
-473.19012
0
LINE
8
0
10
1.6019799
20
81.83429
30
-478.17334
11
4.459882
21
106.44589
31
-473.19012
0
LINE
8
0
10
17.510906
20
146.0534
30
-473.22754
11
5.665595
21
134.86528
31
-473.73132
0
LINE
8
0
10
-13.405813
20
144.08255
30
-474.96402
11
5.665595
21
134.86528
31
-473.73132
0
LINE
8
0
10
4.479526
20
125.15015
30
-473.36685
11
5.665595
21
134.86528
31
-473.73132
0
LINE
8
0
10
14.077762
20
124.17501
30
-473.36685
11
5.665595
21
134.86528
31
-473.73132
0
LINE
8
0
10
-28.359056
20
168.46562
30
-467.02124
11
-35.24276
21
157.3948
31
-466.29904
0
LINE
8
0
10
-37.15585
20
174.43083
30
-464.07916
11
-35.24276
21
157.3948
31
-466.29904
0
LINE
8
0
10
-44.42508
20
144.01843
30
-467.04865
11
-35.24276
21
157.3948
31
-466.29904
0
LINE
8
0
10
-31.03106
20
142.66437
30
-467.04712
11
-35.24276
21
157.3948
31
-466.29904
0
LINE
8
0
10
2.4207988
20
73.32283
30
-466.71637
11
-11.783043
21
55.040306
31
-466.60068
0
LINE
8
0
10
-17.517572
20
70.57837
30
-466.71622
11
-11.783043
21
55.040306
31
-466.60068
0
LINE
8
0
10
-24.030195
20
43.19809
30
-466.6532
11
-11.783043
21
55.040306
31
-466.60068
0
LINE
8
0
10
-8.005205
20
33.06193
30
-466.3169
11
-11.783043
21
55.040306
31
-466.60068
0
LINE
8
0
10
17.510906
20
146.0534
30
-473.22754
11
12.444241
21
135.47415
31
-476.09656
0
LINE
8
0
10
-5.2789516
20
139.1383
30
-478.1997
11
12.444241
21
135.47415
31
-476.09656
0
LINE
8
0
10
14.457179
20
129.2511
30
-476.48724
11
12.444241
21
135.47415
31
-476.09656
0
LINE
8
0
10
23.087828
20
127.453804
30
-476.47177
11
12.444241
21
135.47415
31
-476.09656
0
LINE
8
0
10
3.0150557
20
31.34477
30
-466.91208
11
-7.3077087
21
21.926174
31
-466.85376
0
LINE
8
0
10
-27.893883
20
28.057508
30
-466.67865
11
-7.3077087
21
21.926174
31
-466.85376
0
LINE
8
0
10
-7.5266576
20
15.5403385
30
-466.9121
11
-7.3077087
21
21.926174
31
-466.85376
0
LINE
8
0
10
3.1746473
20
12.762075
30
-466.91214
11
-7.3077087
21
21.926174
31
-466.85376
0
LINE
8
0
10
8.589779
20
167.49768
30
-470.5308
11
2.7090034
21
160.3256
31
-471.36356
0
LINE
8
0
10
-4.709184
20
167.7057
30
-470.52267
11
2.7090034
21
160.3256
31
-471.36356
0
LINE
8
0
10
0.25552115
20
154.90532
30
-470.52786
11
2.7090034
21
160.3256
31
-471.36356
0
LINE
8
0
10
6.6998982
20
151.19374
30
-473.87286
11
2.7090034
21
160.3256
31
-471.36356
0
LINE
8
0
10
41.862293
20
179.67343
30
-486.28342
11
39.669857
21
175.74051
31
-486.28342
0
LINE
8
0
10
37.62028
20
179.18477
30
-486.28342
11
39.669857
21
175.74051
31
-486.28342
0
LINE
8
0
10
37.513557
20
172.93912
30
-486.28342
11
39.669857
21
175.74051
31
-486.28342
0
LINE
8
0
10
41.683296
20
171.16469
30
-486.28342
11
39.669857
21
175.74051
31
-486.28342
0
LINE
8
0
10
-41.388336
20
139.19218
30
-475.312
11
-49.15694
21
129.53493
31
-475.312
0
LINE
8
0
10
-58.57882
20
139.36665
30
-475.312
11
-49.15694
21
129.53493
31
-475.312
0
LINE
8
0
10
-55.377964
20
118.070984
30
-475.312
11
-49.15694
21
129.53493
31
-475.312
0
LINE
8
0
10
-41.282642
20
121.5099
30
-475.312
11
-49.15694
21
129.53493
31
-475.312
0
LINE
8
0
10
-8.933311
20
64.992
30
-467.6646
11
-15.459712
21
49.877712
31
-467.54028
0
LINE
8
0
10
-15.670535
20
59.479958
30
-467.6646
11
-15.459712
21
49.877712
31
-467.54028
0
LINE
8
0
10
-26.56975
20
31.654922
30
-467.16724
11
-15.459712
21
49.877712
31
-467.54028
0
LINE
8
0
10
-10.665248
20
43.383976
30
-467.6646
11
-15.459712
21
49.877712
31
-467.54028
0
LINE
8
0
10
-43.324314
20
188.99974
30
-472.99954
11
-54.957127
21
173.11089
31
-472.9008
0
LINE
8
0
10
-60.740574
20
184.54259
30
-472.99936
11
-54.957127
21
173.11089
31
-472.9008
0
LINE
8
0
10
-69.7432
20
153.39342
30
-472.60492
11
-54.957127
21
173.11089
31
-472.9008
0
LINE
8
0
10
-46.020416
20
165.50781
30
-472.9994
11
-54.957127
21
173.11089
31
-472.9008
0
LINE
8
0
10
15.433941
20
76.6771
30
-470.09918
11
9.585212
21
66.61531
31
-468.9632
0
LINE
8
0
10
1.2169267
20
71.6281
30
-464.631
11
9.585212
21
66.61531
31
-468.9632
0
LINE
8
0
10
5.16535
20
63.124065
30
-470.0992
11
9.585212
21
66.61531
31
-468.9632
0
LINE
8
0
10
16.52463
20
55.03195
30
-471.02332
11
9.585212
21
66.61531
31
-468.9632
0
LINE
8
0
10
9.569546
20
13.778271
30
-467.1566
11
4.814954
21
4.724231
31
-467.1566
0
LINE
8
0
10
-0.7445904
20
13.063426
30
-467.1566
11
4.814954
21
4.724231
31
-467.1566
0
LINE
8
0
10
0.92935336
20
0.15165749
30
-467.1566
11
4.814954
21
4.724231
31
-467.1566
0
LINE
8
0
10
9.5055065
20
-8.096433
30
-467.1566
11
4.814954
21
4.724231
31
-467.1566
0
LINE
8
0
10
11.115973
20
193.56361
30
-469.21637
11
5.1085005
21
185.5033
31
-469.21637
0
LINE
8
0
10
-3.3121197
20
192.64975
30
-469.21637
11
5.1085005
21
185.5033
31
-469.21637
0
LINE
8
0
10
2.1467416
20
180.16132
30
-469.21637
11
5.1085005
21
185.5033
31
-469.21637
0
LINE
8
0
10
10.483406
20
175.63847
30
-469.21637
11
5.1085005
21
185.5033
31
-469.21637
0
LINE
8
0
10
-47.84717
20
147.01053
30
-479.69067
11
-54.50744
21
135.72057
31
-485.1971
0
LINE
8
0
10
-63.486473
20
147.17815
30
-479.57236
11
-54.50744
21
135.72057
31
-485.1971
0
LINE
8
0
10
-58.934425
20
121.23241
30
-501.93384
11
-54.50744
21
135.72057
31
-485.1971
0
LINE
8
0
10
-47.761696
20
127.461205
30
-479.59155
11
-54.50744
21
135.72057
31
-485.1971
0
LINE
8
0
10
-15.195635
20
98.1058
30
-467.03925
11
-20.776804
21
92.28691
31
-467.03925
0
LINE
8
0
10
-27.731844
20
97.67204
30
-467.03925
11
-20.776804
21
92.28691
31
-467.03925
0
LINE
8
0
10
-24.378101
20
84.745605
30
-467.03925
11
-20.776804
21
92.28691
31
-467.03925
0
LINE
8
0
10
-15.801637
20
88.62421
30
-467.03925
11
-20.776804
21
92.28691
31
-467.03925
0
LINE
8
0
10
14.658113
20
106.53953
30
-472.79913
11
13.117712
21
100.97511
31
-470.94458
0
LINE
8
0
10
4.439896
20
102.25299
30
-472.79196
11
13.117712
21
100.97511
31
-470.94458
0
LINE
8
0
10
20.019958
20
105.7608
30
-465.3899
11
13.117712
21
100.97511
31
-470.94458
0
LINE
8
0
10
13.352884
20
89.34714
30
-472.79727
11
13.117712
21
100.97511
31
-470.94458
0
LINE
8
0
10
20.488657
20
172.22514
30
-473.79657
11
12.188814
21
158.2994
31
-472.98752
0
LINE
8
0
10
4.148254
20
172.51947
30
-473.7966
11
12.188814
21
158.2994
31
-472.98752
0
LINE
8
0
10
6.6998982
20
151.19374
30
-473.87286
11
12.188814
21
158.2994
31
-472.98752
0
LINE
8
0
10
17.418446
20
137.25923
30
-470.484
11
12.188814
21
158.2994
31
-472.98752
0
LINE
8
0
10
-21.661612
20
119.98305
30
-467.61813
11
-31.719345
21
112.721054
31
-467.0634
0
LINE
8
0
10
-54.126625
20
122.931625
30
-465.39923
11
-31.719345
21
112.721054
31
-467.0634
0
LINE
8
0
10
-29.403889
20
108.441765
30
-467.61795
11
-31.719345
21
112.721054
31
-467.0634
0
LINE
8
0
10
-21.685255
20
99.52778
30
-467.61826
11
-31.719345
21
112.721054
31
-467.0634
0
LINE
8
0
10
40.45605
20
130.85583
30
-491.59186
11
36.577896
21
121.78963
31
-485.6781
0
LINE
8
0
10
35.38494
20
130.24522
30
-480.91312
11
36.577896
21
121.78963
31
-485.6781
0
LINE
8
0
10
29.685913
20
113.81147
30
-485.0259
11
36.577896
21
121.78963
31
-485.6781
0
LINE
8
0
10
40.784683
20
112.245964
30
-485.18152
11
36.577896
21
121.78963
31
-485.6781
0
LINE
8
0
10
-20.736319
20
181.79752
30
-462.73764
11
-27.028624
21
172.38336
31
-462.73764
0
LINE
8
0
10
-33.857304
20
181.68991
30
-462.73764
11
-27.028624
21
172.38336
31
-462.73764
0
LINE
8
0
10
-32.73885
20
163.72975
30
-462.73764
11
-27.028624
21
172.38336
31
-462.73764
0
LINE
8
0
10
-20.782019
20
162.31631
30
-462.73764
11
-27.028624
21
172.38336
31
-462.73764
0
LINE
8
0
10
20.377132
20
106.09301
30
-465.28003
11
4.568954
21
88.75716
31
-467.04184
0
LINE
8
0
10
-6.1449943
20
91.74572
30
-467.62912
11
4.568954
21
88.75716
31
-467.04184
0
LINE
8
0
10
-2.0963912
20
79.34254
30
-467.6291
11
4.568954
21
88.75716
31
-467.04184
0
LINE
8
0
10
6.14007
20
77.84736
30
-467.6291
11
4.568954
21
88.75716
31
-467.04184
0
LINE
8
0
10
-56.288876
20
160.96075
30
-493.4075
11
-62.35539
21
151.41882
31
-493.4075
0
LINE
8
0
10
-67.73595
20
156.75325
30
-493.4075
11
-62.35539
21
151.41882
31
-493.4075
0
LINE
8
0
10
-66.81068
20
144.3004
30
-493.4075
11
-62.35539
21
151.41882
31
-493.4075
0
LINE
8
0
10
-58.58605
20
143.66092
30
-493.4075
11
-62.35539
21
151.41882
31
-493.4075
0
LINE
8
0
10
-30.460314
20
60.63976
30
-474.66516
11
-32.55814
21
56.304436
31
-477.08612
0
LINE
8
0
10
-41.440998
20
60.702568
30
-474.66458
11
-32.55814
21
56.304436
31
-477.08612
0
LINE
8
0
10
-38.711555
20
48.265106
30
-474.66495
11
-32.55814
21
56.304436
31
-477.08612
0
LINE
8
0
10
-19.619688
20
55.610313
30
-484.34982
11
-32.55814
21
56.304436
31
-477.08612
0
LINE
8
0
10
23.365757
20
11.980723
30
-472.29028
11
15.3200035
21
1.9297917
31
-472.7574
0
LINE
8
0
10
1.4279476
20
-0.9545163
30
-473.5159
11
15.3200035
21
1.9297917
31
-472.7574
0
LINE
8
0
10
13.052976
20
-5.7319775
30
-472.9331
11
15.3200035
21
1.9297917
31
-472.7574
0
LINE
8
0
10
23.433334
20
2.4249372
30
-472.29022
11
15.3200035
21
1.9297917
31
-472.7574
0
LINE
8
0
10
-18.65209
20
41.466293
30
-470.72974
11
-23.987007
21
32.99158
31
-470.72974
0
LINE
8
0
10
-29.464628
20
37.534245
30
-470.72974
11
-23.987007
21
32.99158
31
-470.72974
0
LINE
8
0
10
-27.317259
20
27.253117
30
-470.72974
11
-23.987007
21
32.99158
31
-470.72974
0
LINE
8
0
10
-20.51405
20
25.712673
30
-470.72974
11
-23.987007
21
32.99158
31
-470.72974
0
LINE
8
0
10
41.600834
20
46.13776
30
-485.04578
11
34.45587
21
38.523643
31
-485.04578
0
LINE
8
0
10
26.591711
20
44.17905
30
-485.04578
11
34.45587
21
38.523643
31
-485.04578
0
LINE
8
0
10
30.799608
20
32.09263
30
-485.04578
11
34.45587
21
38.523643
31
-485.04578
0
LINE
8
0
10
38.831333
20
31.68514
30
-485.04578
11
34.45587
21
38.523643
31
-485.04578
0
LINE
8
0
10
27.276617
20
55.373432
30
-476.58075
11
20.393675
21
46.10513
31
-476.58075
0
LINE
8
0
10
11.563947
20
55.46943
30
-476.58075
11
20.393675
21
46.10513
31
-476.58075
0
LINE
8
0
10
15.409164
20
37.560947
30
-476.58075
11
20.393675
21
46.10513
31
-476.58075
0
LINE
8
0
10
27.324968
20
36.01671
30
-476.58075
11
20.393675
21
46.10513
31
-476.58075
0
LINE
8
0
10
2.8649616
20
110.54547
30
-468.48688
11
-0.944329
21
108.6759
31
-468.05704
0
LINE
8
0
10
-8.282297
20
122.26787
30
-467.92612
11
-0.944329
21
108.6759
31
-468.05704
0
LINE
8
0
10
-4.1729174
20
111.93006
30
-467.92847
11
-0.944329
21
108.6759
31
-468.05704
0
LINE
8
0
10
5.812937
20
89.9602
30
-467.88666
11
-0.944329
21
108.6759
31
-468.05704
0
LINE
8
0
10
34.215282
20
175.75024
30
-475.0936
11
20.76508
21
154.29144
31
-475.95737
0
LINE
8
0
10
9.92637
20
160.62457
30
-476.2453
11
20.76508
21
154.29144
31
-475.95737
0
LINE
8
0
10
13.073436
20
141.50792
30
-476.2453
11
20.76508
21
154.29144
31
-475.95737
0
LINE
8
0
10
25.845228
20
139.28302
30
-476.24533
11
20.76508
21
154.29144
31
-475.95737
0
LINE
8
0
10
-13.856222
20
144.28119
30
-475.0516
11
-13.172361
21
136.0598
31
-467.84448
0
LINE
8
0
10
-21.210352
20
142.765
30
-465.4253
11
-13.172361
21
136.0598
31
-467.84448
0
LINE
8
0
10
-12.520484
20
131.72147
30
-465.45612
11
-13.172361
21
136.0598
31
-467.84448
0
LINE
8
0
10
-5.1023846
20
125.47152
30
-465.44495
11
-13.172361
21
136.0598
31
-467.84448
0
LINE
8
0
10
-5.6152167
20
161.9422
30
-464.6586
11
-15.65303
21
152.49014
31
-464.6586
0
LINE
8
0
10
-25.555544
20
159.44319
30
-464.6586
11
-15.65303
21
152.49014
31
-464.6586
0
LINE
8
0
10
-21.88392
20
140.64241
30
-464.6586
11
-15.65303
21
152.49014
31
-464.6586
0
LINE
8
0
10
-9.55744
20
147.93282
30
-464.6586
11
-15.65303
21
152.49014
31
-464.6586
0
LINE
8
0
10
45.03526
20
81.55057
30
-488.44345
11
40.31848
21
75.3493
31
-488.44345
0
LINE
8
0
10
32.734234
20
80.986595
30
-488.44345
11
40.31848
21
75.3493
31
-488.44345
0
LINE
8
0
10
38.900806
20
72.41948
30
-488.44345
11
40.31848
21
75.3493
31
-488.44345
0
LINE
8
0
10
44.603626
20
66.440544
30
-488.44345
11
40.31848
21
75.3493
31
-488.44345
0
LINE
8
0
10
-25.562752
20
147.50917
30
-466.52185
11
-26.538292
21
141.86472
31
-466.93292
0
LINE
8
0
10
-39.611965
20
146.86395
30
-466.53897
11
-26.538292
21
141.86472
31
-466.93292
0
LINE
8
0
10
-35.955357
20
131.81677
30
-466.54272
11
-26.538292
21
141.86472
31
-466.93292
0
LINE
8
0
10
-5.0231056
20
141.26898
30
-468.12817
11
-26.538292
21
141.86472
31
-466.93292
0
LINE
8
0
10
-29.30742
20
97.41111
30
-471.7163
11
-36.94124
21
89.39327
31
-471.7163
0
LINE
8
0
10
-46.596798
20
97.631096
30
-471.7163
11
-36.94124
21
89.39327
31
-471.7163
0
LINE
8
0
10
-42.541035
20
77.27413
30
-471.7163
11
-36.94124
21
89.39327
31
-471.7163
0
LINE
8
0
10
-29.31971
20
85.256744
30
-471.7163
11
-36.94124
21
89.39327
31
-471.7163
0
LINE
8
0
10
-3.0768633
20
118.9131
30
-465.84595
11
-10.308377
21
103.51743
31
-465.81125
0
LINE
8
0
10
-21.38417
20
119.361626
30
-465.84604
11
-10.308377
21
103.51743
31
-465.81125
0
LINE
8
0
10
-17.613482
20
97.01524
30
-465.84604
11
-10.308377
21
103.51743
31
-465.81125
0
LINE
8
0
10
0.8410075
20
78.77976
30
-465.70694
11
-10.308377
21
103.51743
31
-465.81125
0
LINE
8
0
10
33.185482
20
40.845818
30
-478.48746
11
27.621101
21
28.947735
31
-478.48746
0
LINE
8
0
10
23.49591
20
37.31852
30
-478.48746
11
27.621101
21
28.947735
31
-478.48746
0
LINE
8
0
10
21.234663
20
20.426651
30
-478.48746
11
27.621101
21
28.947735
31
-478.48746
0
LINE
8
0
10
32.56835
20
17.199951
30
-478.48746
11
27.621101
21
28.947735
31
-478.48746
0
LINE
8
0
10
28.23761
20
139.12462
30
-475.42996
11
16.48549
21
110.149
31
-476.45056
0
LINE
8
0
10
14.178738
20
120.280045
30
-476.0784
11
16.48549
21
110.149
31
-476.45056
0
LINE
8
0
10
1.4159365
20
81.37262
30
-478.22076
11
16.48549
21
110.149
31
-476.45056
0
LINE
8
0
10
22.109682
20
99.81872
30
-476.07315
11
16.48549
21
110.149
31
-476.45056
0
LINE
8
0
10
-25.088953
20
6.8340926
30
-478.03433
11
-29.197918
21
-0.58738685
31
-478.03433
0
LINE
8
0
10
-31.693892
20
6.8992667
30
-478.03433
11
-29.197918
21
-0.58738685
31
-478.03433
0
LINE
8
0
10
-34.982506
20
-7.944831
30
-478.03433
11
-29.197918
21
-0.58738685
31
-478.03433
0
LINE
8
0
10
-25.026325
20
-8.138076
30
-478.03433
11
-29.197918
21
-0.58738685
31
-478.03433
0
LINE
8
0
10
60.66282
20
94.424706
30
-489.18918
11
41.102783
21
92.32881
31
-485.20874
0
LINE
8
0
10
34.29429
20
99.35905
30
-483.8911
11
41.102783
21
92.32881
31
-485.20874
0
LINE
8
0
10
31.648445
20
90.29291
30
-483.88336
11
41.102783
21
92.32881
31
-485.20874
0
LINE
8
0
10
37.805588
20
85.238594
30
-483.87128
11
41.102783
21
92.32881
31
-485.20874
0
LINE
8
0
10
-1.3782614
20
173.47781
30
-467.0723
11
-6.0677176
21
168.18546
31
-467.0723
0
LINE
8
0
10
-15.285967
20
173.58344
30
-467.0723
11
-6.0677176
21
168.18546
31
-467.0723
0
LINE
8
0
10
-6.3984375
20
165.95097
30
-467.0723
11
-6.0677176
21
168.18546
31
-467.0723
0
LINE
8
0
10
-1.2082038
20
159.72964
30
-467.0723
11
-6.0677176
21
168.18546
31
-467.0723
0
LINE
8
0
10
4.492274
20
202.48885
30
-466.372
11
-0.41823196
21
193.27173
31
-466.372
0
LINE
8
0
10
-3.719847
20
202.56606
30
-466.372
11
-0.41823196
21
193.27173
31
-466.372
0
LINE
8
0
10
-7.0119276
20
185.34515
30
-466.372
11
-0.41823196
21
193.27173
31
-466.372
0
LINE
8
0
10
4.566573
20
182.68689
30
-466.372
11
-0.41823196
21
193.27173
31
-466.372
0
LINE
8
0
10
-32.267555
20
182.90794
30
-463.5862
11
-38.194603
21
180.89091
31
-463.7417
0
LINE
8
0
10
-44.39233
20
182.8575
30
-463.5862
11
-38.194603
21
180.89091
31
-463.7417
0
LINE
8
0
10
-43.036057
20
180.0408
30
-464.2082
11
-38.194603
21
180.89091
31
-463.7417
0
LINE
8
0
10
-33.082474
20
177.75739
30
-463.5862
11
-38.194603
21
180.89091
31
-463.7417
0
LINE
8
0
10
16.695324
20
54.563576
30
-471.0619
11
4.7503004
21
53.545883
31
-468.66217
0
LINE
8
0
10
-6.10716
20
68.16246
30
-467.8649
11
4.7503004
21
53.545883
31
-468.66217
0
LINE
8
0
10
-2.9157023
20
46.83238
30
-467.86563
11
4.7503004
21
53.545883
31
-468.66217
0
LINE
8
0
10
11.328741
20
44.62513
30
-467.8563
11
4.7503004
21
53.545883
31
-468.66217
0
LINE
8
0
10
15.443428
20
126.204285
30
-467.1674
11
9.3173065
21
121.42752
31
-472.28314
0
LINE
8
0
10
1.8343214
20
126.209984
30
-472.66522
11
9.3173065
21
121.42752
31
-472.28314
0
LINE
8
0
10
5.812739
20
113.015785
30
-473.2215
11
9.3173065
21
121.42752
31
-472.28314
0
LINE
8
0
10
14.178738
20
120.280045
30
-476.0784
11
9.3173065
21
121.42752
31
-472.28314
0
LINE
8
0
10
-51.36834
20
137.93846
30
-486.51013
11
-52.44813
21
115.94127
31
-476.9248
0
LINE
8
0
10
-56.80197
20
123.71652
30
-476.72568
11
-52.44813
21
115.94127
31
-476.9248
0
LINE
8
0
10
-52.358215
20
109.76498
30
-476.71356
11
-52.44813
21
115.94127
31
-476.9248
0
LINE
8
0
10
-49.26399
20
92.34511
30
-467.74982
11
-52.44813
21
115.94127
31
-476.9248
0
LINE
8
0
10
35.7242
20
190.43556
30
-481.76462
11
31.057005
21
184.92485
31
-481.76462
0
LINE
8
0
10
24.430756
20
190.56194
30
-481.76462
11
31.057005
21
184.92485
31
-481.76462
0
LINE
8
0
10
28.25022
20
179.17784
30
-481.76462
11
31.057005
21
184.92485
31
-481.76462
0
LINE
8
0
10
35.822845
20
179.52405
30
-481.76462
11
31.057005
21
184.92485
31
-481.76462
0
LINE
8
0
10
50.75231
20
146.69156
30
-488.9425
11
43.276802
21
132.44522
31
-488.9425
0
LINE
8
0
10
38.497097
20
141.96552
30
-488.9425
11
43.276802
21
132.44522
31
-488.9425
0
LINE
8
0
10
34.941566
20
121.1405
30
-488.9425
11
43.276802
21
132.44522
31
-488.9425
0
LINE
8
0
10
48.916245
20
119.983284
30
-488.9425
11
43.276802
21
132.44522
31
-488.9425
0
LINE
8
0
10
-45.15145
20
90.246315
30
-489.47607
11
-53.248608
21
79.70424
31
-489.47607
0
LINE
8
0
10
-61.595882
20
86.85948
30
-489.47607
11
-53.248608
21
79.70424
31
-489.47607
0
LINE
8
0
10
-58.353714
20
71.081825
30
-489.47607
11
-53.248608
21
79.70424
31
-489.47607
0
LINE
8
0
10
-47.893383
20
70.62932
30
-489.47607
11
-53.248608
21
79.70424
31
-489.47607
0
LINE
8
0
10
36.3458
20
63.182125
30
-482.9363
11
32.954205
21
57.830963
31
-482.9363
0
LINE
8
0
10
32.021156
20
63.10757
30
-482.9363
11
32.954205
21
57.830963
31
-482.9363
0
LINE
8
0
10
27.11337
20
49.34071
30
-482.9363
11
32.954205
21
57.830963
31
-482.9363
0
LINE
8
0
10
36.336487
20
55.69346
30
-482.9363
11
32.954205
21
57.830963
31
-482.9363
0
LINE
8
0
10
-45.473083
20
172.9834
30
-474.24353
11
-54.580257
21
161.89854
31
-473.7997
0
LINE
8
0
10
-70.08753
20
153.03113
30
-472.59125
11
-54.580257
21
161.89854
31
-473.7997
0
LINE
8
0
10
-55.876526
20
158.32486
30
-474.1871
11
-54.580257
21
161.89854
31
-473.7997
0
LINE
8
0
10
-46.883896
20
163.25479
30
-474.177
11
-54.580257
21
161.89854
31
-473.7997
0
LINE
8
0
10
38.19573
20
50.47938
30
-471.79196
11
18.847927
21
22.657915
31
-472.92368
0
LINE
8
0
10
10.460937
20
31.796133
30
-473.18182
11
18.847927
21
22.657915
31
-472.92368
0
LINE
8
0
10
1.0926857
20
-1.3247523
30
-473.5388
11
18.847927
21
22.657915
31
-472.92368
0
LINE
8
0
10
25.64236
20
9.680901
30
-473.18204
11
18.847927
21
22.657915
31
-472.92368
0
LINE
8
0
10
-54.22204
20
142.08728
30
-498.3577
11
-63.5534
21
131.7323
31
-499.29675
0
LINE
8
0
10
-72.56825
20
140.1722
30
-498.35757
11
-63.5534
21
131.7323
31
-499.29675
0
LINE
8
0
10
-68.43536
20
123.90071
30
-498.3578
11
-63.5534
21
131.7323
31
-499.29675
0
LINE
8
0
10
-58.98795
20
120.76906
30
-502.11395
11
-63.5534
21
131.7323
31
-499.29675
0
LINE
8
0
10
-27.52235
20
156.11612
30
-466.42926
11
-35.73466
21
142.95007
31
-466.13416
0
LINE
8
0
10
-43.330635
20
156.51254
30
-466.42938
11
-35.73466
21
142.95007
31
-466.13416
0
LINE
8
0
10
-44.83473
20
122.64994
30
-465.24866
11
-35.73466
21
142.95007
31
-466.13416
0
LINE
8
0
10
-27.250937
20
136.52167
30
-466.42938
11
-35.73466
21
142.95007
31
-466.13416
0
LINE
8
0
10
8.519338
20
80.72991
30
-466.7497
11
-2.1329029
21
69.79524
31
-466.7497
0
LINE
8
0
10
-12.7537155
20
78.08243
30
-466.7497
11
-2.1329029
21
69.79524
31
-466.7497
0
LINE
8
0
10
-8.149645
20
60.037273
30
-466.7497
11
-2.1329029
21
69.79524
31
-466.7497
0
LINE
8
0
10
3.8524113
20
60.33134
30
-466.7497
11
-2.1329029
21
69.79524
31
-466.7497
0
LINE
8
0
10
-0.5441041
20
152.83214
30
-465.16
11
-18.979385
21
132.42801
31
-465.44232
0
LINE
8
0
10
-32.326485
20
139.3253
30
-465.5364
11
-18.979385
21
132.42801
31
-465.44232
0
LINE
8
0
10
-28.132135
20
119.404564
30
-465.5364
11
-18.979385
21
132.42801
31
-465.44232
0
LINE
8
0
10
-14.914817
20
118.15002
30
-465.5364
11
-18.979385
21
132.42801
31
-465.44232
0
LINE
8
0
10
-37.179867
20
161.65036
30
-471.27112
11
-46.73487
21
147.13945
31
-469.74243
0
LINE
8
0
10
-56.12926
20
160.04535
30
-471.25848
11
-46.73487
21
147.13945
31
-469.74243
0
LINE
8
0
10
-48.66754
20
144.69328
30
-471.23737
11
-46.73487
21
147.13945
31
-469.74243
0
LINE
8
0
10
-44.962807
20
122.16881
30
-465.20276
11
-46.73487
21
147.13945
31
-469.74243
0
LINE
8
0
10
-20.017586
20
62.48893
30
-470.01657
11
-27.920263
21
50.668926
31
-469.29843
0
LINE
8
0
10
-34.431004
20
62.21173
30
-470.01794
11
-27.920263
21
50.668926
31
-469.29843
0
LINE
8
0
10
-30.50007
20
46.792255
30
-470.01727
11
-27.920263
21
50.668926
31
-469.29843
0
LINE
8
0
10
-26.732391
20
31.18279
30
-467.14197
11
-27.920263
21
50.668926
31
-469.29843
0
LINE
8
0
10
1.795897
20
152.10901
30
-467.29324
11
-7.677651
21
146.00674
31
-468.22424
0
LINE
8
0
10
-13.213041
20
149.65796
30
-467.2931
11
-7.677651
21
146.00674
31
-468.22424
0
LINE
8
0
10
-9.007952
20
139.64064
30
-467.30023
11
-7.677651
21
146.00674
31
-468.22424
0
LINE
8
0
10
-10.285507
20
142.6194
30
-471.01038
11
-7.677651
21
146.00674
31
-468.22424
0
LINE
8
0
10
25.874292
20
87.83456
30
-473.48297
11
14.150316
21
69.29367
31
-476.1276
0
LINE
8
0
10
6.476286
20
83.51365
30
-475.331
11
14.150316
21
69.29367
31
-476.1276
0
LINE
8
0
10
11.172343
20
64.76382
30
-475.3584
11
14.150316
21
69.29367
31
-476.1276
0
LINE
8
0
10
13.078344
20
41.062653
30
-480.338
11
14.150316
21
69.29367
31
-476.1276
0
LINE
8
0
10
-23.392069
20
109.953865
30
-468.95938
11
-33.437584
21
98.270905
31
-472.54736
0
LINE
8
0
10
-41.887775
20
119.36119
30
-486.0332
11
-33.437584
21
98.270905
31
-472.54736
0
LINE
8
0
10
-42.84592
20
71.05202
30
-466.0601
11
-33.437584
21
98.270905
31
-472.54736
0
LINE
8
0
10
-25.624567
20
92.71655
30
-469.13675
11
-33.437584
21
98.270905
31
-472.54736
0
LINE
8
0
10
51.214214
20
56.750046
30
-491.77478
11
40.49472
21
47.352997
31
-491.77478
0
LINE
8
0
10
28.725826
20
56.052578
30
-491.77478
11
40.49472
21
47.352997
31
-491.77478
0
LINE
8
0
10
34.235542
20
35.449955
30
-491.77478
11
40.49472
21
47.352997
31
-491.77478
0
LINE
8
0
10
47.803307
20
41.15941
30
-491.77478
11
40.49472
21
47.352997
31
-491.77478
0
LINE
8
0
10
27.681131
20
148.61934
30
-466.74063
11
6.392234
21
140.71527
31
-469.6514
0
LINE
8
0
10
-10.285507
20
142.6194
30
-471.01038
11
6.392234
21
140.71527
31
-469.6514
0
LINE
8
0
10
2.7533944
20
138.8963
30
-470.42743
11
6.392234
21
140.71527
31
-469.6514
0
LINE
8
0
10
5.4199166
20
132.72607
30
-470.42712
11
6.392234
21
140.71527
31
-469.6514
0
LINE
8
0
10
-30.531063
20
54.129513
30
-480.50653
11
-39.869698
21
41.55481
31
-480.50653
0
LINE
8
0
10
-49.672333
20
49.57134
30
-480.50653
11
-39.869698
21
41.55481
31
-480.50653
0
LINE
8
0
10
-45.399643
20
32.264202
30
-480.50653
11
-39.869698
21
41.55481
31
-480.50653
0
LINE
8
0
10
-33.875748
20
30.254173
30
-480.50653
11
-39.869698
21
41.55481
31
-480.50653
0
LINE
8
0
10
18.544893
20
188.56863
30
-472.19943
11
13.499554
21
179.78726
31
-472.19943
0
LINE
8
0
10
10.192915
20
185.84563
30
-472.19943
11
13.499554
21
179.78726
31
-472.19943
0
LINE
8
0
10
8.155134
20
172.37428
30
-472.19943
11
13.499554
21
179.78726
31
-472.19943
0
LINE
8
0
10
17.10527
20
172.36057
30
-472.19943
11
13.499554
21
179.78726
31
-472.19943
0
LINE
8
0
10
48.260242
20
159.97961
30
-490.4237
11
37.349762
21
139.73228
31
-485.04422
0
LINE
8
0
10
26.376942
20
157.60448
30
-486.0758
11
37.349762
21
139.73228
31
-485.04422
0
LINE
8
0
10
29.635647
20
105.82046
30
-477.63834
11
37.349762
21
139.73228
31
-485.04422
0
LINE
8
0
10
45.12623
20
135.52457
30
-486.039
11
37.349762
21
139.73228
31
-485.04422
0
LINE
8
0
10
34.021687
20
164.13962
30
-479.091
11
25.039433
21
150.2125
31
-481.87704
0
LINE
8
0
10
18.512867
20
163.7987
30
-479.38177
11
25.039433
21
150.2125
31
-481.87704
0
LINE
8
0
10
25.356848
20
151.13356
30
-479.48758
11
25.039433
21
150.2125
31
-481.87704
0
LINE
8
0
10
22.266325
20
121.778076
30
-489.5478
11
25.039433
21
150.2125
31
-481.87704
0
LINE
8
0
10
44.901485
20
125.91433
30
-484.91245
11
36.211903
21
110.95567
31
-484.91245
0
LINE
8
0
10
27.846922
20
121.49564
30
-484.91245
11
36.211903
21
110.95567
31
-484.91245
0
LINE
8
0
10
28.622398
20
99.21783
30
-484.91245
11
36.211903
21
110.95567
31
-484.91245
0
LINE
8
0
10
43.476807
20
97.19489
30
-484.91245
11
36.211903
21
110.95567
31
-484.91245
0
LINE
8
0
10
-11.087396
20
53.997803
30
-468.48056
11
-17.961506
21
45.62397
31
-468.48056
0
LINE
8
0
10
-24.891914
20
50.4849
30
-468.48056
11
-17.961506
21
45.62397
31
-468.48056
0
LINE
8
0
10
-21.64564
20
39.32853
30
-468.48056
11
-17.961506
21
45.62397
31
-468.48056
0
LINE
8
0
10
-14.221078
20
38.684647
30
-468.48056
11
-17.961506
21
45.62397
31
-468.48056
0
LINE
8
0
10
32.64687
20
70.64205
30
-478.24548
11
23.253582
21
59.847446
31
-478.24548
0
LINE
8
0
10
14.061101
20
66.93514
30
-478.24548
11
23.253582
21
59.847446
31
-478.24548
0
LINE
8
0
10
17.515839
20
49.9382
30
-478.24548
11
23.253582
21
59.847446
31
-478.24548
0
LINE
8
0
10
28.79052
20
51.874393
30
-478.24548
11
23.253582
21
59.847446
31
-478.24548
0
LINE
8
0
10
-8.447253
20
81.59468
30
-466.8919
11
-16.246626
21
67.306145
31
-466.80783
0
LINE
8
0
10
-24.06484
20
82.18849
30
-466.8416
11
-16.246626
21
67.306145
31
-466.80783
0
LINE
8
0
10
-24.367842
20
42.82932
30
-466.6511
11
-16.246626
21
67.306145
31
-466.80783
0
LINE
8
0
10
-8.106566
20
62.61208
30
-466.84674
11
-16.246626
21
67.306145
31
-466.80783
0
LINE
8
0
10
-10.235639
20
14.788545
30
-468.11554
11
-17.946304
21
4.4621
31
-467.70892
0
LINE
8
0
10
-23.490026
20
14.672636
30
-468.11832
11
-17.946304
21
4.4621
31
-467.70892
0
LINE
8
0
10
-19.404034
20
1.2361202
30
-468.11603
11
-17.946304
21
4.4621
31
-467.70892
0
LINE
8
0
10
-18.655516
20
-12.848901
30
-466.4859
11
-17.946304
21
4.4621
31
-467.70892
0
LINE
8
0
10
36.360714
20
80.85654
30
-486.89014
11
32.44229
21
72.652824
31
-483.39813
0
LINE
8
0
10
31.14518
20
79.20334
30
-479.87146
11
32.44229
21
72.652824
31
-483.39813
0
LINE
8
0
10
26.52966
20
65.96949
30
-483.3396
11
32.44229
21
72.652824
31
-483.39813
0
LINE
8
0
10
35.733616
20
64.58193
30
-483.49133
11
32.44229
21
72.652824
31
-483.39813
0
LINE
8
0
10
-3.7884731
20
199.00323
30
-464.29608
11
-12.299527
21
185.70038
31
-464.29608
0
LINE
8
0
10
-23.017954
20
194.09454
30
-464.29608
11
-12.299527
21
185.70038
31
-464.29608
0
LINE
8
0
10
-16.5572
20
178.04555
30
-464.29608
11
-12.299527
21
185.70038
31
-464.29608
0
LINE
8
0
10
-5.8344855
20
171.65823
30
-464.29608
11
-12.299527
21
185.70038
31
-464.29608
0
LINE
8
0
10
-16.864069
20
80.94174
30
-468.25528
11
-23.60366
21
68.415375
31
-468.19275
0
LINE
8
0
10
-29.385204
20
83.73829
30
-467.42206
11
-23.60366
21
68.415375
31
-468.19275
0
LINE
8
0
10
-28.077745
20
63.86271
30
-468.25552
11
-23.60366
21
68.415375
31
-468.19275
0
LINE
8
0
10
-20.087624
20
45.118763
30
-468.8381
11
-23.60366
21
68.415375
31
-468.19275
0
LINE
8
0
10
-38.45293
20
168.1495
30
-468.885
11
-42.90274
21
160.81363
31
-468.885
0
LINE
8
0
10
-47.531517
20
165.43889
30
-468.885
11
-42.90274
21
160.81363
31
-468.885
0
LINE
8
0
10
-45.994232
20
155.81863
30
-468.885
11
-42.90274
21
160.81363
31
-468.885
0
LINE
8
0
10
-39.63228
20
153.84752
30
-468.885
11
-42.90274
21
160.81363
31
-468.885
0
LINE
8
0
10
-43.487686
20
180.2552
30
-464.2159
11
-34.976048
21
164.28082
31
-464.02213
0
LINE
8
0
10
-37.8813
20
170.9246
30
-464.0747
11
-34.976048
21
164.28082
31
-464.02213
0
LINE
8
0
10
-33.75153
20
152.0917
30
-463.72314
11
-34.976048
21
164.28082
31
-464.02213
0
LINE
8
0
10
-24.783676
20
153.85175
30
-464.07474
11
-34.976048
21
164.28082
31
-464.02213
0
LINE
8
0
10
55.474503
20
124.63999
30
-493.02225
11
45.171104
21
113.56053
31
-493.0634
0
LINE
8
0
10
31.784815
20
119.75027
30
-493.1803
11
45.171104
21
113.56053
31
-493.0634
0
LINE
8
0
10
41.33801
20
104.813065
30
-493.02545
11
45.171104
21
113.56053
31
-493.0634
0
LINE
8
0
10
52.087093
20
105.038826
30
-493.02548
11
45.171104
21
113.56053
31
-493.0634
0
LINE
8
0
10
-54.601967
20
123.05542
30
-465.30582
11
-47.629166
21
110.16553
31
-471.4364
0
LINE
8
0
10
-50.566692
20
118.76563
30
-473.47156
11
-47.629166
21
110.16553
31
-471.4364
0
LINE
8
0
10
-49.972786
20
96.67583
30
-473.50305
11
-47.629166
21
110.16553
31
-471.4364
0
LINE
8
0
10
-35.37521
20
102.16523
30
-473.46518
11
-47.629166
21
110.16553
31
-471.4364
0
LINE
8
0
10
47.629955
20
170.34041
30
-485.57285
11
35.16594
21
150.16747
31
-486.59753
0
LINE
8
0
10
25.885683
20
166.72859
30
-485.5764
11
35.16594
21
150.16747
31
-486.59753
0
LINE
8
0
10
22.110126
20
121.31762
30
-489.66437
11
35.16594
21
150.16747
31
-486.59753
0
LINE
8
0
10
45.03799
20
142.28322
30
-485.57654
11
35.16594
21
150.16747
31
-486.59753
0
LINE
8
0
10
10.990719
20
108.6394
30
-467.72858
11
2.4170904
21
95.00489
31
-467.72858
0
LINE
8
0
10
-3.6007435
20
104.751724
30
-467.72858
11
2.4170904
21
95.00489
31
-467.72858
0
LINE
8
0
10
-6.327376
20
82.38753
30
-467.72858
11
2.4170904
21
95.00489
31
-467.72858
0
LINE
8
0
10
8.605762
20
84.240944
30
-467.72858
11
2.4170904
21
95.00489
31
-467.72858
0
LINE
8
0
10
6.3376265
20
42.225388
30
-467.2528
11
2.123884
21
33.152283
31
-467.2528
0
LINE
8
0
10
-2.0669837
20
37.841553
30
-467.2528
11
2.123884
21
33.152283
31
-467.2528
0
LINE
8
0
10
-1.1211536
20
28.06556
30
-467.2528
11
2.123884
21
33.152283
31
-467.2528
0
LINE
8
0
10
5.346047
20
24.476627
30
-467.2528
11
2.123884
21
33.152283
31
-467.2528
0
LINE
8
0
10
-26.851492
20
117.34627
30
-470.02505
11
-35.3435
21
107.96453
31
-470.02505
0
LINE
8
0
10
-44.422157
20
115.221924
30
-470.02505
11
-35.3435
21
107.96453
31
-470.02505
0
LINE
8
0
10
-40.268803
20
99.478424
30
-470.02505
11
-35.3435
21
107.96453
31
-470.02505
0
LINE
8
0
10
-29.831535
20
99.811485
30
-470.02505
11
-35.3435
21
107.96453
31
-470.02505
0
LINE
8
0
10
55.3784
20
163.53105
30
-496.86655
11
44.04268
21
148.92386
31
-495.86282
0
LINE
8
0
10
23.398493
20
141.09956
30
-493.34967
11
44.04268
21
148.92386
31
-495.86282
0
LINE
8
0
10
45.402767
20
149.66537
30
-496.58804
11
44.04268
21
148.92386
31
-495.86282
0
LINE
8
0
10
51.99106
20
141.39944
30
-496.6471
11
44.04268
21
148.92386
31
-495.86282
0
LINE
8
0
10
-41.00617
20
96.238785
30
-472.86514
11
-49.03276
21
86.883354
31
-479.45343
0
LINE
8
0
10
-59.096024
20
96.52532
30
-482.4044
11
-49.03276
21
86.883354
31
-479.45343
0
LINE
8
0
10
-55.060215
20
75.24118
30
-481.5664
11
-49.03276
21
86.883354
31
-479.45343
0
LINE
8
0
10
-40.96865
20
79.52814
30
-480.97778
11
-49.03276
21
86.883354
31
-479.45343
0
LINE
8
0
10
26.574047
20
97.30814
30
-477.2121
11
18.864758
21
85.54723
31
-477.2121
0
LINE
8
0
10
10.860746
20
92.72654
30
-477.2121
11
18.864758
21
85.54723
31
-477.2121
0
LINE
8
0
10
13.718344
20
76.834404
30
-477.2121
11
18.864758
21
85.54723
31
-477.2121
0
LINE
8
0
10
24.30589
20
75.31985
30
-477.2121
11
18.864758
21
85.54723
31
-477.2121
0
LINE
8
0
10
39.781136
20
112.08883
30
-483.43375
11
36.10654
21
98.7366
31
-484.02927
0
LINE
8
0
10
14.865184
20
94.57938
30
-479.85056
11
36.10654
21
98.7366
31
-484.02927
0
LINE
8
0
10
28.640854
20
93.96021
30
-483.53467
11
36.10654
21
98.7366
31
-484.02927
0
LINE
8
0
10
61.13899
20
94.31799
30
-489.29816
11
36.10654
21
98.7366
31
-484.02927
0
LINE
8
0
10
38.043537
20
93.436554
30
-483.09335
11
33.063522
21
85.38677
31
-483.09335
0
LINE
8
0
10
25.61256
20
91.185844
30
-483.09335
11
33.063522
21
85.38677
31
-483.09335
0
LINE
8
0
10
31.352066
20
82.28631
30
-483.09335
11
33.063522
21
85.38677
31
-483.09335
0
LINE
8
0
10
37.24592
20
74.638374
30
-483.09335
11
33.063522
21
85.38677
31
-483.09335
0
LINE
8
0
10
13.070893
20
61.141342
30
-467.59125
11
2.3919425
21
43.65695
31
-467.19278
0
LINE
8
0
10
-8.168891
20
32.589634
30
-466.30502
11
2.3919425
21
43.65695
31
-467.19278
0
LINE
8
0
10
-4.6838193
20
37.28793
30
-467.4433
11
2.3919425
21
43.65695
31
-467.19278
0
LINE
8
0
10
9.349587
20
43.608902
30
-467.4316
11
2.3919425
21
43.65695
31
-467.19278
0
LINE
8
0
10
19.309343
20
48.101532
30
-470.68555
11
10.69089
21
33.82803
31
-472.20154
0
LINE
8
0
10
6.5530243
20
43.38388
30
-470.6986
11
10.69089
21
33.82803
31
-472.20154
0
LINE
8
0
10
7.784614
20
29.622118
30
-470.6886
11
10.69089
21
33.82803
31
-472.20154
0
LINE
8
0
10
9.116582
20
14.204583
30
-476.73346
11
10.69089
21
33.82803
31
-472.20154
0
LINE
8
0
10
-4.476241
20
89.92612
30
-466.20462
11
-7.76125
21
84.047035
31
-466.34747
0
LINE
8
0
10
-10.937362
20
89.5451
30
-466.38934
11
-7.76125
21
84.047035
31
-466.34747
0
LINE
8
0
10
-11.381242
20
78.77816
30
-466.3948
11
-7.76125
21
84.047035
31
-466.34747
0
LINE
8
0
10
-4.250155
20
77.93874
30
-466.40112
11
-7.76125
21
84.047035
31
-466.34747
0
LINE
8
0
10
29.135601
20
199.91422
30
-475.1284
11
21.045357
21
189.77112
31
-475.1284
0
LINE
8
0
10
13.008913
20
196.20145
30
-475.1284
11
21.045357
21
189.77112
31
-475.1284
0
LINE
8
0
10
16.12142
20
181.44516
30
-475.1284
11
21.045357
21
189.77112
31
-475.1284
0
LINE
8
0
10
25.915493
20
181.5237
30
-475.1284
11
21.045357
21
189.77112
31
-475.1284
0
LINE
8
0
10
-19.14579
20
34.402218
30
-471.65567
11
-25.033337
21
27.473427
31
-471.65567
0
LINE
8
0
10
-34.82737
20
34.428627
30
-471.65567
11
-25.033337
21
27.473427
31
-471.65567
0
LINE
8
0
10
-27.046576
20
22.608355
30
-471.65567
11
-25.033337
21
27.473427
31
-471.65567
0
LINE
8
0
10
-19.113611
20
18.454517
30
-471.65567
11
-25.033337
21
27.473427
31
-471.65567
0
LINE
8
0
10
-45.21804
20
198.14497
30
-473.4965
11
-53.35228
21
184.0722
31
-473.4965
0
LINE
8
0
10
-60.198437
20
192.97015
30
-473.4965
11
-53.35228
21
184.0722
31
-473.4965
0
LINE
8
0
10
-60.569424
20
173.21776
30
-473.4965
11
-53.35228
21
184.0722
31
-473.4965
0
LINE
8
0
10
-47.42321
20
171.95592
30
-473.4965
11
-53.35228
21
184.0722
31
-473.4965
0
LINE
8
0
10
31.578592
20
152.85251
30
-478.7206
11
25.061993
21
139.97769
31
-478.7206
0
LINE
8
0
10
19.4754
20
148.25786
30
-478.7206
11
25.061993
21
139.97769
31
-478.7206
0
LINE
8
0
10
18.721437
20
130.62956
30
-478.7206
11
25.061993
21
139.97769
31
-478.7206
0
LINE
8
0
10
30.47254
20
128.17087
30
-478.7206
11
25.061993
21
139.97769
31
-478.7206
0
LINE
8
0
10
-50.069077
20
152.96402
30
-479.67688
11
-54.50244
21
147.9956
31
-479.67688
0
LINE
8
0
10
-61.8989
20
153.01607
30
-479.67688
11
-54.50244
21
147.9956
31
-479.67688
0
LINE
8
0
10
-56.050804
20
143.94073
30
-479.67688
11
-54.50244
21
147.9956
31
-479.67688
0
LINE
8
0
10
-49.991
20
142.06157
30
-479.67688
11
-54.50244
21
147.9956
31
-479.67688
0
LINE
8
0
10
-44.768898
20
54.225647
30
-470.27576
11
-47.08265
21
50.892494
31
-480.0419
0
LINE
8
0
10
-54.4781
20
62.26662
30
-483.30353
11
-47.08265
21
50.892494
31
-480.0419
0
LINE
8
0
10
-50.759842
20
43.47432
30
-483.3085
11
-47.08265
21
50.892494
31
-480.0419
0
LINE
8
0
10
-38.32377
20
43.6034
30
-483.27975
11
-47.08265
21
50.892494
31
-480.0419
0
LINE
8
0
10
-40.6794
20
109.68878
30
-478.48575
11
-49.06395
21
98.28622
31
-478.48575
0
LINE
8
0
10
-59.555004
20
109.813705
30
-478.48575
11
-49.06395
21
98.28622
31
-478.48575
0
LINE
8
0
10
-55.39017
20
87.61698
30
-478.48575
11
-49.06395
21
98.28622
31
-478.48575
0
LINE
8
0
10
-40.63123
20
86.02539
30
-478.48575
11
-49.06395
21
98.28622
31
-478.48575
0
ENDSEC
0
EOF
